/* XPM */
static char *result[] = {
/* columns rows colors chars-per-pixel */
"64 64 29 1 ",
"  c #0E0000",
". c #100000",
"X c #140000",
"o c #550707",
"O c #640909",
"+ c #770B0B",
"@ c #781205",
"# c #50341A",
"$ c #73512A",
"% c #901606",
"& c #9A1509",
"* c #AD1B08",
"= c #B12320",
"- c #BE2727",
"; c #D02C26",
": c #D9302D",
"> c #DF3332",
", c #E33535",
"< c #8D6D40",
"1 c #EF625D",
"2 c #F26C66",
"3 c #47811D",
"4 c #6BBC30",
"5 c #F58181",
"6 c #FA908F",
"7 c #FB9492",
"8 c #FD9E9C",
"9 c #FFA9A9",
"0 c None",
/* pixels */
"0000000000000000000000000000000000000000000000000000000000000000",
"0000000000000000000000000000000000000000000000000000000000000000",
"0000000000000000000000000000000000000000000000000000000000000000",
"0000000000000000000000000000000000000000000000000000000000000000",
"0000000000000000000000000000000000000000XXXXXXXXX000000000000000",
"0000000000000000000000000000000000000000XXXXXXXXX000000000000000",
"0000000000000000000000000000000000000000XXXXXXXXX000000000000000",
"00000000000000000000000000000000XXXXXXXX444444444XXXX00000000000",
"00000000000000000000000000000000XXXXXXXX444444444XXXX00000000000",
"00000000000000000000000000000000XXXXXXXX444444444XXXX00000000000",
"00000000000000000000000000000000XXXXXXXX444444444XXXX00000000000",
"00000000000000000000000000000000XXXXXXXX444444444XXXX00000000000",
"0000000000000000000000000000XXXX<<<<44443333333334444XXXX0000000",
"0000000000000000000000000000XXXX<<<<44443333333334444XXXX0000000",
"0000000000000000000000000000XXXX<<<<44443333333334444XXXX0000000",
"0000000000000000000000000000XXXX<<<<44443333333334444XXXX0000000",
"000000000000000XXXXXXXXXXXXX<<<<XXXXXXXXXXXXXXXXX3333XXXX0000000",
"000000000000000XXXXXXXXXXXXX<<<<XXXXXXXXXXXXXXXXX3333XXXX0000000",
"000000000000000XXXXXXXXXXXXX<<<<XXXXXXXXXXXXXXXXX3333XXXX0000000",
"000000000000000XXXXXXXXXXXXX<<<<XXXXXXXXXXXXXXXXX3333XXXX0000000",
"00000000000XXXX*********++++$$$$++++****++++oXXXXXXXX00000000000",
"00000000000XXXX*********++++$$$$++++****++++oXXXXXXXX00000000000",
"00000000000XXXX*********++++$$$$++++****++++oXXXXXXXX00000000000",
"00000000000XXXX*********++++$$$$++++****++++oXXXXXXXX00000000000",
"00000000000XXXX*********++++$$$$++++****++++oXXXXXXXX00000000000",
"0000000XXXX****,,,,,,,,,****####****,,,,****&++++XXXX00000000000",
"0000000XXXX****,,,,,,,,,****####****,,,,****&++++XXXX00000000000",
"0000000XXXX****,,,,,,,,,****####****,,,,****&++++XXXX00000000000",
"0000000XXXX****,,,,,,,,,****####****,,,,****&++++XXXX00000000000",
"0000000XXXX,,,,,,,,599992222,,,,,,,,,,,,,,,,;****XXXX00000000000",
"0000000XXXX,,,,,,,,599992222,,,,,,,,,,,,,,,,;****XXXX00000000000",
"0000000XXXX,,,,,,,,599992222,,,,,,,,,,,,,,,,;****XXXX00000000000",
"0000000XXXX,,,,,,,,599992222,,,,,,,,,,,,,,,,;****XXXX00000000000",
"0000000XXXX,,,,1111699998888,,,,,,,,,,,,,,,,;****XXXX00000000000",
"0000000XXXX,,,,2222799999999,,,,,,,,,,,,,,,,;****XXXX00000000000",
"0000000XXXX,,,,2222799999999,,,,,,,,,,,,,,,,;****XXXX00000000000",
"0000000XXXX,,,,2222799999999,,,,,,,,,,,,,,,,;****XXXX00000000000",
"0000000XXXX,,,,2222799999999,,,,,,,,,,,,,,,,;****XXXX00000000000",
"0000000XXXX,,,,,,,,599992222,,,,,,,,,,,,,,,,;****XXXX00000000000",
"0000000XXXX,,,,,,,,599992222,,,,,,,,,,,,,,,,;****XXXX00000000000",
"0000000XXXX,,,,,,,,599992222,,,,,,,,,,,,,,,,;****XXXX00000000000",
"0000000XXXX,,,,,,,,599992222,,,,,,,,,,,,,,,,;****XXXX00000000000",
"0000000XXXX****,,,,,,,,,,,,,,,,,,,,,,,,,,,,,-++++XXXX00000000000",
"0000000XXXX****,,,,,,,,,,,,,,,,,,,,,,,,,,,,,-++++XXXX00000000000",
"0000000XXXX****,,,,,,,,,,,,,,,,,,,,,,,,,,,,,-++++XXXX00000000000",
"0000000XXXX****,,,,,,,,,,,,,,,,,,,,,,,,,,,,,-++++XXXX00000000000",
"0000000....%%%%::::>,,,,,,,,,,,,,,,,,,,,::::=OOOO....00000000000",
"00000000000XXXX****;,,,,,,,,,,,,,,,,,,,,****@XXXX000000000000000",
"00000000000XXXX****;,,,,,,,,,,,,,,,,,,,,****@XXXX000000000000000",
"00000000000XXXX****;,,,,,,,,,,,,,,,,,,,,****@XXXX000000000000000",
"00000000000XXXX****;,,,,,,,,,,,,,,,,,,,,****@XXXX000000000000000",
"000000000000000XXXX@********++++********XXXX 0000000000000000000",
"000000000000000XXXX@********++++********XXXX 0000000000000000000",
"000000000000000XXXX@********++++********XXXX 0000000000000000000",
"000000000000000XXXX@********++++********XXXX 0000000000000000000",
"0000000000000000000 XXXXXXXXXXXXXXXXXXXX000000000000000000000000",
"0000000000000000000 XXXXXXXXXXXXXXXXXXXX000000000000000000000000",
"0000000000000000000 XXXXXXXXXXXXXXXXXXXX000000000000000000000000",
"0000000000000000000 XXXXXXXXXXXXXXXXXXXX000000000000000000000000",
"0000000000000000000 XXXXXXXXXXXXXXXXXXXX000000000000000000000000",
"0000000000000000000000000000000000000000000000000000000000000000",
"0000000000000000000000000000000000000000000000000000000000000000",
"0000000000000000000000000000000000000000000000000000000000000000",
"0000000000000000000000000000000000000000000000000000000000000000"
};
