/* XPM */
static char *result[] = {
/* columns rows colors chars-per-pixel */
"64 64 52 1 ",
"  c #195864",
". c #155B6C",
"X c #1B5B6A",
"o c #255660",
"O c #215B6A",
"+ c #0F6B74",
"@ c #0F697B",
"# c #116775",
"$ c #156A76",
"% c #13677B",
"& c #146B7E",
"* c #2E6C7C",
"= c #3F747F",
"- c #1F857E",
"; c #1E887F",
": c #22857F",
"> c #3FAA7E",
", c #40A97E",
"< c #6FC67A",
"1 c #74C376",
"2 c #78C177",
"3 c #73C379",
"4 c #A5CF65",
"5 c #A6CE68",
"6 c #A5D064",
"7 c #A8D266",
"8 c #A5D269",
"9 c #A8D369",
"0 c #AACE70",
"q c #156A81",
"w c #4A7C88",
"e c #1E8784",
"r c #1E8983",
"t c #1D8688",
"y c #1F888C",
"u c #228683",
"i c #218985",
"p c #228988",
"a c #3EA783",
"s c #3FAA81",
"d c #40AA80",
"f c #729DA3",
"g c #709EAB",
"h c #70A0AC",
"j c #75A9AD",
"k c #79C680",
"l c #97BBC4",
"z c #9CBCC5",
"x c #9DBECA",
"c c #A3BDCB",
"v c #96C1C7",
"b c #A4C2CA",
/* pixels */
"3331666631114444666633314664666621314666664664666666333344666666",
"3311666633<14444666633314466666622314446646666666664133344666666",
"3331666633316666666631326666666612116666666666666664111266666666",
"33116666<3<16666666631234664666621326646646466666667111264666666",
"6666<13<64666666<11166666666666666666666313266666666666466661113",
"6666<13366646664113364664666646666666666313266666646646666661113",
"6666133366666664133166646466666666666666332266666666666466441333",
"66663333466666661333666466666664666666663112766646466466664433<3",
"6666;rii4666;re:6664-eipuiue66641233666666666668uuuiuupu44666666",
"6666erri6666;eee8666reeeueee66661222666666664667prueueee64666666",
"6446eeei6666eeee6666rerereee86663231666466666668iieereee66666666",
"6666ieei6666eii:6666riiieeer86662311646466666666iureiiie66666666",
"333<ieeeiiii3331iii;3333ieeeiiii3333etii2133eiiieeei3333riii6666",
"3333ieeererp1333irei3333ireeeeep3133reei3133eeeereri3333ieri6666",
"3333ireereei3333irrp3333ereeeeup3333ieri3333e;eerrri3333ir;i4666",
"3333ieereeepk333irep3333riiieeep131<iiii3333iiuierr;3<33e;-i6666",
"4466rree;eeeiiuieeeeiiii8868;rep33114888iiir8888ieru9667&&&&1133",
"6666eeeeeeeee;e;eeeeee;i6668erei33214448peri8667ieee9667&&&&<133",
"4646rreeeeeeeie;eeeee;ei6669reei11318666iuri8667ieru9668%%q%<333",
"6665eiereeeeriiieiiriiii7868-eer113<4664:irr8688iii;8666#%&&3333",
"31116666eeei3333>>ss3333ipii&&&%3<13ieii3333reii3333ppii3333iiii",
"33116666:eei3333sss>3333eeee&&&@3133ieei3333eeei3332peei3333iiee",
"33316666ueee3333ss>>3333ieeu&&&%333<ueep<333reei3333peei333<ieer",
"33<<6866eee;3333sss>3331iiip&&&@<333pppe3<<krrre33<1reeu3333iere",
"uipp111<$qq&epupiriiiiii6666rreteepu6666,,dd&&&&,>>seee-ippueeee",
"eeer3333$q&&eeeeeeeeeeei6669;reteeeu6666,sdd$&&&sss>ieeeeeeeeeee",
"teei1333$&&&eteetteeeeei7669rrrreee:6666,>ss&&&&ss>>ieeeyttperee",
"tee;3311&&&&eeeetetteeei6667rirreeee6666,ss>&&&&ds>>ieeeeetteiii",
"q&q%uppirreeeett&q&&rre-$&%%0866%&&$1111:iirq&&%8848eee-&qqq,>ss",
"&&&&uurerrerrett&&&&eeeeq&&%7667+&&&133<ierr%&&#7668eeee&&&%>>>d",
"&&&&etttyeyte;et&&&&e;ee&&&%7667%&q&3333iree&&&#7668eetp&&&q>>ss",
"q&q&eeetreeeeeey&%&%iiie&&&$8667%&q&3333yete&&&+8668eeee&&&&ds>s",
"eett&&q&&&&&eerp33333333sdssiiiieeetq&&q&&&&ss>,iiii&&&&&&&&rrrr",
"tyte&&&&&&&&errp33333333s>s>ieeeeyte&&q%&&&&sss>irrr&&&&&&&&rree",
"yeee&&&&&qq&rerr33331333>ssdiepeeeee&&&&&&&&sss>irrr&&&&q&&&rree",
"etyt&&&&&&q%rrri<k331121asss;etire;;&qqq&&q&ssssrrreq&&&&&&&eere",
"qq%q&&&&reee>ssstiie&&&&reer&&&&assseeee3333>ss>sas>q&&q>ssseeee",
"&&&&&q&&yeee,sssteee&&&&reee&&&&dssspeee<333>>sssdss&&&&assseeee",
"&&&&&&&&rrrrssssieee&&&qttet&&q&dsssirer331<>>>sss>s&&&qasssueee",
"q&&q&&&%eiyesssdeett&&&qeteeq&&qsssseree333<>s>>sss>&@$&sss>ee;e",
"rreeq&q&>sds&$&$&&&&>dss&&&&ddssiiie&&q&&@@$&&&&&&$qssss&&&&&&&&",
"rett&&&q>sss&q&q&&&&>ssd&&&&sssseeeeq&&&&&&q&&&&&&q&dsds&&&&&&&&",
"ette&&&q>,,>&&&&&&&&s>>,&qq&sssseett&&q&&q&&&qqq&&&&dsd>&&&&qq&&",
"ttet&&&&>ss,$q&&&&q&sssd$&&qsssseeptq&&&&&&&qqqq&&q&dsdd&&&&&&&&",
"&&%qdads&&&$q&&&&&&&&&$$ssds$@-&%%&&ssss&&&&ssssssss&@@$&&&qssss",
"&&&&ddss&&&&&&&&&&&&&&&&ssss&&+&&&&&sss>&&&&sssdssss&&&&&&&&>sss",
"&&&$s>s>q&&&&&&&&&&&&&&&,ssd&&&&&&&&ssss&&&&sdssssss@q&&&&&&ssss",
"&&&&dss>q&&&&&&&&&&&&&&&>sssq&&&&&&&>s>s&&&&ssssssss&&&&&&&&ssss",
"&&&&&&&&&q&&&&&&ssss&&&&&&&&&&&&s>s>ssss&&q&s>ssq&&q&&&&sd>>q&&&",
"&&&&&&&&&&&&&&&qssss&&&&&&&&&&&&ssss>>s>&&&&sssaq&&&&&&&ssss&&&&",
"&&&&&&&&&&&&&&&&ss>>&&&&&&q&&&&&>sssssss&&&&ssss&&&&&&&&ssss&&&q",
"&&&&&&&&q&&&&&&qsss>&&&qqq+&&&&&sssssss>&&&qsss>&&&&&&&&ssss&&&&",
",dds&&&&>dddq&&$&&&&&&&&>ss>ddss@&&@&&@&&&q&&&&&&&&&>>,d&&&&,>,d",
">sss&&&&>sd,&&&q&&&&&&&&sss>sss>&q&&&q&&&&&&&&&&&&&&>sss+&&q>>>s",
"ssss&&qq>ddd&&&q&&&q&&&&ss>s>s>s&q&&&&&&&&&&&&&&&q&&ssss&&&&>>ss",
"s>s,&&&&>>d,&&&&&&&&&&qq>ssssdss&&&&&&&&&&&&&&&&&&&&s>s>&&&q>s,s",
"&&&q&&&q>dsd&&&&q&&&&&q+&&&&+&&&&&&&&&&&sssdqq&&&&&&&$&&&&&&&&&$",
"&&&&&&&&>sss&&&&@q&&&&&&&&&&q&&&&&&&&q&&ssss&&&&&&&q&&&&&&$@&&&q",
"&&&&&&&&>>>>&&&&&&&&q&&&&&&&q&&&&&q&&&&&ss>s@&&&&&@@&&&&&&&&&&&&",
"&&&q&&&&,>>,&&&&&&&&&&&&&&&&&&q&&&&&&&&&d>sd.#....#.....+.#....#",
"&&&&&q&q&q&&&&&&&&&&&q&&&&&&&&&&&&&&&&&&q&&q.X.X......... ...XX#",
"&&&&&&&&&&&&&&&&&&&q&&&&&&&&&&&&&&&&&&q&&&&&...Ojv.czg=.lvocqO.X",
"&&&&&&&q&&&&&&&&&&&&&&&&&q&-q&&&q&q&&&&&q&&&...Ofz.bchwXlx*cX...",
"q&&&&&&&&&&&&&&&&&q&&&&&q@q@&&&&&&&&&&&&&&&$.X.... O. ......... "
};
