/* XPM */
static char *result[] = {
/* columns rows colors chars-per-pixel */
"64 64 201 2 ",
"   c #3D2A1A",
".  c #1E2020",
"X  c #222524",
"o  c #242826",
"O  c #2A2D2B",
"+  c #272A29",
"@  c #2D312E",
"#  c #35312D",
"$  c #2D3130",
"%  c #343533",
"&  c #343836",
"*  c #3B3D3A",
"=  c #373A38",
"-  c #4C2C1B",
";  c #502F15",
":  c #5D361B",
">  c #59341C",
",  c #633A1C",
"<  c #693A1E",
"1  c #463728",
"2  c #473929",
"3  c #4C3B2C",
"4  c #4C3325",
"5  c #513D2D",
"6  c #593623",
"7  c #483C33",
"8  c #503F33",
"9  c #6D3D25",
"0  c #653C27",
"q  c #763E24",
"w  c #3D403E",
"e  c #6D401F",
"r  c #55422E",
"t  c #42423D",
"y  c #4B443D",
"u  c #544436",
"i  c #5C4631",
"p  c #57493D",
"a  c #6E4121",
"s  c #734424",
"d  c #7A4226",
"f  c #7C4926",
"g  c #7B442B",
"h  c #7D4A2B",
"j  c #77452A",
"k  c #694E34",
"l  c #684938",
"z  c #78503B",
"x  c #3F4340",
"c  c #424642",
"v  c #4B4640",
"b  c #464A47",
"n  c #474C49",
"m  c #4A4D4A",
"M  c #494947",
"N  c #4D524D",
"B  c #51524C",
"V  c #5B5248",
"C  c #4F5450",
"Z  c #535552",
"A  c #555A55",
"S  c #595D57",
"D  c #5A5E59",
"F  c #565C58",
"G  c #69584B",
"H  c #605D59",
"J  c #5D615C",
"K  c #61655F",
"L  c #65685F",
"P  c #6C6458",
"I  c #636661",
"U  c #666A63",
"Y  c #696D65",
"T  c #6B6E6A",
"R  c #736B61",
"E  c #6D7167",
"W  c #6E726A",
"Q  c #72756C",
"!  c #75796E",
"~  c #797B6F",
"^  c #7F7269",
"/  c #737771",
"(  c #767A71",
")  c #7A7D73",
"_  c #7B7E79",
"`  c #82452A",
"'  c #824C2B",
"]  c #8C4B2E",
"[  c #86492B",
"{  c #914D2F",
"}  c #86532B",
"|  c #8C552C",
" . c #8F5A2D",
".. c #94562E",
"X. c #945A2D",
"o. c #985E2D",
"O. c #874C30",
"+. c #8C4F31",
"@. c #934D31",
"#. c #8B5638",
"$. c #935532",
"%. c #9B5334",
"&. c #9C5B34",
"*. c #965934",
"=. c #A15635",
"-. c #A45B36",
";. c #A45C39",
":. c #AA5D39",
">. c #A55739",
",. c #9C6332",
"<. c #9B6632",
"1. c #95612E",
"2. c #A36533",
"3. c #A56933",
"4. c #AB6D36",
"5. c #A56439",
"6. c #AC633B",
"7. c #AD6B39",
"8. c #AB6437",
"9. c #B2643D",
"0. c #B36C3C",
"q. c #B96C3E",
"w. c #AE7138",
"e. c #AC7136",
"r. c #B4733B",
"t. c #BB733E",
"y. c #BB7B3D",
"u. c #B6783D",
"i. c #AE5942",
"p. c #AF6640",
"a. c #B26440",
"s. c #B66C40",
"d. c #BC6E41",
"f. c #BC6648",
"g. c #BD7242",
"h. c #BE7844",
"j. c #8D7665",
"k. c #C16E44",
"l. c #C56A4B",
"z. c #C37544",
"x. c #C67A45",
"c. c #CA7D46",
"v. c #CC7E49",
"b. c #C9744B",
"n. c #D17F4B",
"m. c #D57D51",
"M. c #7D8076",
"N. c #7E8279",
"B. c #BE8040",
"V. c #808277",
"C. c #81857B",
"Z. c #85897E",
"A. c #AF876D",
"S. c #C38341",
"D. c #CC8147",
"F. c #CC8C45",
"G. c #CE8149",
"H. c #CA8C46",
"J. c #D2844B",
"K. c #D6894C",
"L. c #D98B4E",
"P. c #D08C47",
"I. c #CF9148",
"U. c #D4934A",
"Y. c #DC934E",
"T. c #D7994B",
"R. c #DB9C4E",
"E. c #DA8452",
"W. c #DD8B52",
"Q. c #D68550",
"!. c #DE9251",
"~. c #DE9B52",
"^. c #E1994F",
"/. c #E0974F",
"(. c #E18E56",
"). c #E39454",
"_. c #E59C54",
"`. c #E99A59",
"'. c #E79758",
"]. c #E7A353",
"[. c #E9A454",
"{. c #EBA955",
"}. c #EDA958",
"|. c #EFA65B",
" X c #828680",
".X c #858A82",
"XX c #898D85",
"oX c #8B8D8A",
"OX c #8B9187",
"+X c #8C9289",
"@X c #91968E",
"#X c #94998F",
"$X c #959595",
"%X c #959A92",
"&X c #9B9B9B",
"*X c #BF9880",
"=X c #A3A2A1",
"-X c #AAA9A9",
";X c gray69",
":X c #CDCDCD",
">X c None",
/* pixels */
">X>X>X>X>X>X>X>X>X>X>X>X>X>X>X>X>X>X>X>X>X>X>X>X>X>X>X>X>X>X>X>X>X>X>X>X>X>X>X>X>X>X>X>X>X>X>X>X>X>X>X>X>X>X>X>X>X>X>X>X>X>X>X>X",
">X>X>X>X>X>X>X>X>X>X>X>X>X>X>X>X>X>X>X>X>X>X>X>X>X>X>X>X>X>X>X>X>X>X>X>X>X>X>X>X>X>X>X>X>X>X>X>X>X>X>X>X>X>X>X>X>X>X>X>X>X>X>X>X",
">X>X>X>X>X>X>X>X>X>X>X>X>X>X>X>X>X>X>X>X>X>X>X>X>X>X>X>X>X>X>X>X>X>X>X>X>X>X>X>X>X>X>X>X>X>X>X>X>X>X>X>X>X>X>X>X>X>X>X>X>X>X>X>X",
">X>X>X>X>X>X>X>X>X>X>X>X>X>X>X>X>X>X>X>X>X>X>X>X>X>X= .X.X.XN.N..X.X X.XN.n >X>X>X>X>X>X>X>X>X>X>X>X>X>X>X>X>X>X>X>X>X>X>X>X>X>X",
">X>X>X>X>X>X>X>X>X>X>X>X>X>X>X>X>X>X>X>X>X>X>X>X>X+  XXXN.Z.Z.Z.N.N.N.( ( N.* >X>X>X>X>X>X>X>X>X>X>X>X>X>X>X>X>X>X>X>X>X>X>X>X>X",
">X>X>X>X>X>X>X>X>X>X>X>X>X>X>X>X>X>X>X>X>X>X>X>X>X+ Z.( N.Z.) ) N.) Y T Y U & >X>X>X>X>X>X>X>X>X>X>X>X>X>X>X>X>X>X>X>X>X>X>X>X>X",
">X>X>X>X>X>X>X>X>X>X>X>X>X>X>X>X>X>X>X>X>X>X>X>X>X+ M.( ( M.~ M.C.( U Y W J >X>X>X>X>X>X>X>X>X>X>X>X>X>X>X>X>X>X>X>X>X>X>X>X>X>X",
">X>X>X>X>X>X>X>X>X>X>X>X>X>X>X>X>X>X>X>X>X>X>X>X>X>XJ ~ N.! M.M.N.) U U W N >X>X>X>X>X>X>X>X>X>X>X>X>X>X>X>X>X>X>X>X>X>X>X>X>X>X",
">X>X>X>X>X>X>X>X>X>X>X>X>X>X>X>X>X>X>X>X>X>X>X>X>X>Xn ) ! ~ ) ( C.! Q Y U x >X>X>X>X>X>X>X>X>X>X>X>X>X>X>X>X>X>X>X>X>X>X>X>X>X>X",
">X>X>X>X>X>X>X>X>X>X>X>X>X>X>X>X>X>X>X>X>X>X>X>X>X>Xx ( ! M.) Q _ Q ! Q Q n x >X>X>X>X>X>X>X>X>X>X>X>X>X>X>X>X>X>X>X>X>X>X>X>X>X",
">X>X>X>X>X>X>X>X>X>X>X>X>X>X>X# >X>X>X>X>X>Xo A / U x Y ! ) W W j.) ( ( Y x N.N.J & >X>X>X>X>X>XO >X>X>X>X>X>X>X>X>X>X>X>X>X>X>X",
">X>X>X>X>X>X>X>X>X>X>X>X>X>XF ) B >X>X>Xw J Z.N.N.Q c S ( W T W _ Q ) ) K C +X( N.XXQ n >X>X>XM.N.@ >X>X>X>X>X>X>X>X>X>X>X>X>X>X",
">X>X>X>X>X>X>X>X>X>X>X>X>XI .XN.K w >Xn .XN.W W W W n n Q ) Q ) / / ( M.D W .XW U W N.N.N >X~ Z.OXZ.@ >X>X>X>X>X>X>X>X>X>X>X>X>X",
">X>X>X>X>X>X>X>X>X>X>X>X( N.( ( N.U C .X X/ M.M.Q / J n N.C._ C.N.N.( Q F N.) Q W W E M.C ( Z.OXC.C.Q O >X>X>X>X>X>X>X>X>X>X>X>X",
">X>X>X>X>X>X>X>X>X>X>XY N.Q ! Q M.W U C N.N.M.M.M.Q Q n W ! N._ N.) / W F XXQ ( Q E ( J C OXZ.Z.Z.V.M.U % >X>X>X>X>X>X>X>X>X>X>X",
">X>X>X>X>X>X>X>X>X>XJ N.Q Q N.N.M.N.N.F F M.T M.T E n x A D D J J J J A n N.W ( ( ( E C XXN..X.XZ.Z.C.Z.K >X>X>X>X>X>X>X>X>X>X>X",
">X>X>X>X>X>X>X>X>X>X>XF ( W Q ( ! Q M.( N T T E V - d ' +.>.&.h p.i.&.O.O.6 6 L I / D W Z.V.C.M.M.C.Z.U O >X>X>X>X>X>X>X>X>X>X>X",
">X>X>X>X>X>X>X>X>X>X>X>XA ! ) ( Q / M.N.U y u a +.+.&.>.&.p.&.} s.p.6.i.6.i.*.h l 7 A C.Z.C.V.C._ M.U O >X>X>X>X>X>X>X>X>X>X>X>X",
">X>X>X>X>X>X>X>X>X>X>XO A N W ( M.M.Q ( v - #.6.&.&.;.5.i.s.6.| x.f.s.s.s.6.p.p.h g 8 ) V.! C.C.C.J F t >X>X>X>X>X>X>X>X>X>X>X>X",
">X>X>X>X>X>X>X>X>X>X>XC Z.U K W ! E Q c 6 s 5.6.6.5.p.s.s.s.g.*.J.v.x.h.z.s.f.s.h f.h 3 D E Q N.S A Z.K >X>X>X>X>X>X>X>X>X>X>X>X",
">X>X>X>X>X>X>X>X>X>Xw C.C.( A U Q K y > } ' 6.s.p.s.g.h.x.b.v.,.W.J.G.v.v.h.b.h.} b.6.j 7 A J N K N.N.M.N >X>X>X>X>X>X>X>X>X>X>X",
">X>X>X>X>X>X>X>X>X>XW N.) ! U c N y 0 #.&.| 7.z.h.h.b.D.D.G.G.<.).W.Q.Q.G.H.Q.v.#.v.g.6.h 3 x Y Z.C.Z.Z.! = >X>X>X>X>X>X>X>X>X>X",
">X>X>X>X>X>X>X>X>XF M.( ! N.N./ * 6 *.;.5.$.h.v.b.S.G.G.G.J.G.w.`.!.J.Q.J.J.Q.E.1.Q.h.g.p.h u W ~ C.M.M.M.L >X>X>X>X>X>X>X>X>X>X",
">X>X>X>X>X>X>X>X>XJ ! ~ ( M.M.B > $.p.7.w.*.x.Q.G.H.J.Q.K.Q.G.w.`.~.L.Q.J.J.L.Q.,.W.G.g.g.s.j p ) M.Z.N.~ Y @ >X>X>X>X>X>X>X>X>X",
">X>X>X>X>X>X>X>XD N J Q ! M.W   $.;.0.s.u.,.S.K.G.G.L.J.L.L.P.w.`.!.L.K.J.K.G.L.2.).J.x.z.g.5.a L M.~ W U Z B >X>X>X>X>X>X>X>X>X",
">X>X>X>X>X>X>X>XN._ U A W ! p , ;.5.g.z.x.7.J.W.J.J.Y.L.L.W.L.e.`.W.L.K.Q.K.G.L.3.`.L.v.c.g.s.5.4 K Y F J Q K >X>X>X>X>X>X>X>X>X",
">X>X>X>X>X>X>Xw ~ Q ) OXJ L l $.5.s.z.c.S.2.D.W.J.J.Y.J.W.W.J.w._.W.J.J.K.Q.H.Q.2.P.K.J.c.z.s.0.h B F Z.N.W Q n >X>X>X>X>X>X>X>X",
">X>X>X>X>X>X>XA ~ ! Q Q ) B s o.p.h.v.D.G.7.T.K.J.!.!.K.K.K.J.w._.K.J.G.K.G.J.L.2.U.L.P.D.c.h.s.&.3 W ! W ~ Q L >X>X>X>X>X>X>X>X",
">X>X>X>X>X>X>XB ~ Q Q Q E G } 7.g.x.G.G.G.w.R.K.L.!.!.J.K.J.J.w._.J.G.D.D.G.G.L.2.U.L.D.c.c.h.r.0.z U W ! Q ! Q >X>X>X>X>X>X>X>X",
">X>X>X>X>X>X>Xm ~ Q E Q Q G 2.r.z.c.G.G.G.7.R.K.K.!.).J.J.J.G.w._.J.K.K.K.D.G.L.3.U.L.D.D.S.x.g.t.#.U W E W ~ Q >X>X>X>X>X>X>X>X",
">X>X>X>X>X>X>XJ L Y Y U Z a 0.s.z.G.G.J.L.w.~.L.J.Y.K.J.J.J.G.e._.K.Q.G.J.K.Q.T.3.T.Y.G.G.D.c.g.s.p.p K W Y Y Y & >X>X>X>X>X>X>X",
">X>X>X>X@ * A ( ( ( ( Q y h z.D.G.J.W.L.L.r.~.!.K.L.J.J.J.J.J.4.).W.L.J.Q.L.L.!.3.R.W.Q.K.G.G.S.h.7.r J W T I Q Y m w = >X>X>X>X",
">X>X>Xo U Y _ _ ( N.Z.M.t | v.J.G.J.L.W.L.r._.(.J.K.J.K.P.K.J.r.).L.Y.K.L.Y.L.Y.3._.).K.K.J.K.K.x.3.u Y N.N.M.XXC.) ) K $ >X>X>X",
">X>X>Xo N.Q ) Q U Y Q ~ t o.n.G.G.G.L.W.K.r.~.(.J.K.J.K.J.J.K.u.~.W.Y.L.L.Y.W.!.2.].W.J.K.G.J.G.D.s.k U ( N.N.Z.) Q ( J $ >X>X>X",
">X>X>Xo @XW ) _ ) Q E Q t o.G.G.J.J.L.K.W.7.~.).K.J.D.J.J.J.K.r.!.K.W.L.K.K.K.W.3.{.(.J.K.G.K.K.Q.g.k N.Q ) N.Z._ ) ) J % >X>X>X",
">X>X>X+ +XQ ( C..XC.Q ! t o.D.G.G.L.K.J.K.r.~.(.P.J.J.P.J.J.J.4.~.K.Y.!.L.K.K.K.2.{.W.J.J.G.J.J.K.H.k  XY ! ( M.) ) ) J O >X>X>X",
">X>X>Xo C.Q ) ) M.M.) Y t o.G.G.J.K.K.J.J.0.R.W.J.J.J.G.J.G.K.e.^.L.L.(.L.J.J.J.2.{.W.J.J.D.J.G.Q.H.k XXW ( ) N.N.) ) J % >X>X>X",
">X>X>Xo Q W ( ( ! ) ) ~ t o.v.v.G.K.K.J.K.7.R.).J.J.J.G.J.J.J.e.^.J.J./.(.J.J.K.2.{.W.J.J.D.J.J.G.U.k .XN.) ) N.) Q W D O >X>X>X",
">X>X>Xo T Y U U U Y Q W t o.c.c.v.Q.J.J.K.0.~.(.G.G.G.D.J.D.J.e.^.J.J.L.(.J.K.K.2.{.W.J.J.D.J.G.J.T.k N.! W E W W U U Z $ >X>X>X",
">X>X>Xo J J J J J J K K t o.v.D.v.J.J.J.Q.7.~.W.G.v.G.D.J.D.J.1._.J.E.E.K.J.J.J.2.|.E.v.D.D.G.D.K.U.u J U J J J J A A m $ >X>X>X",
">X>X>Xo w w w x t x w w t X.v.J.J.J.J.n.J.7.Y.L.n.J.D.D.v.D.J.2._.n.J.J.K.J.n.J.2._.K.D.c.D.J.v.J.U.i x x x x x x * x * $ >X>X>X",
">X>X>X>X>X>X>XU OX%X+XM.t X.v.J.v.J.J.J.J.2.U.L.v.D.c.c.v.D.J.<.).J.n.n.P.J.n.J...[.P.D.c.v.G.v.J.I.i T XX%XXXW & >X>X>X>X>X>X>X",
">X>X>X>X>X>X>XW OXOXM.M.t o.D.D.J.G.J.v.J.2.U.K.D.v.v.c.J.v.J.2.).J.v.n.D.v.v.J...[.J.c.x.c.n.v.v.I.i C.N.! W Y & >X>X>X>X>X>X>X",
">X>X>X>X>X>X>XK V.Z.M.M.t o.D.J.J.J.J.D.G.0.U.L.D.D.J.D.n.D.K.o.).G.c.v.J.J.v.J.2._.D.x.x.c.b.v.v.F.i XXQ ( ( W & >X>X>X>X>X>X>X",
">X>X>X>X>X>X>XJ ! N.M.M.y o.D.D.J.J.G.J.v.r.T.J.v.v.J.D.J.v.J.e.L.n.c.c.G.G.v.v.2.^.D.z.t.z.z.z.z.P.k  XW ( Q Q & >X>X>X>X>X>X>X",
">X>X>X>X>X>X>XJ E j.M.M.t o.v.v.v.G.J.J.G.0.T.m.v.D.G.J.J.v.J.e.L.v.c.n.D.c.c.J.2.[.n.r.A.A.*X*X0.I.k _ W T Y W & >X>X>X>X>X>X>X",
">X>X>X>X>X>X>XJ Q V.~ Q t o.D.v.v.J.G.G.G.7.Y.J.D.c.J.v.v.J.v.e.(.c.n.n.c.c.v.J.o.].D.X.j.$X$X$X&.U.k ( W K K I & >X>X>X>X>X>X>X",
">X>X>X>X>X>X>XK E Q L L t o.x.c.v.v.G.G.G.o.U.E.v.D.J.v.J.D.c.2.!.c.c.n.P.c.n.J.| ].c.f v S -XI $.U.k I W Y J I & >X>X>X>X>X>X>X",
">X>X>X>X>X>X>XD U U J J t o.G.G.c.v.D.D.n.o.T.Q.v.v.J.D.J.n.v.o./.J.c.P.J.G.n.J.} {.b.j H M oXT k B.r K Y U K L & >X>X>X>X>X>X>X",
">X>X>X>X. X O c n n x w t o.G.G.v.D.v.D.J.8.T.J.J.J.v.D.J.J.J.4.).J.v.J.J.G.Q.K. .{.h.j.;XZ  X-X=X&.3 n n m N n = X o o >X>X>X>X",
">X>X>Xo W N.+X#X%X%XXXXXt o.D.v.v.D.c.D.v.8.T.(.J.D.J.v.J.J.D.e.'.n.c.G.G.J.J.K.} {.;.^ Z O % t :Xf r W OXOXOXOX) ) Q T $ >X>X>X",
">X>X>XX M.M.~ ! ) M.( Q t o.D.c.c.x.x.c.v.4.U.W.J.J.D.J.J.J.D.../.J.c.G.J.G.G.J.X.{.i.j.Z M M % &X: 5 XXY E Y Q Q N.M.J $ >X>X>X",
">X>X>Xo C.! ~ ) V.) ) E t X.v.c.n.c.c.z.c.o.P.W.n.D.J.n.n.n.D.} (.J.c.v.n.D.v.G. .].2.V T I B B oX, r _ J U E ~ Z.V._ J $ >X>X>X",
">X>X>XX  XW M.V.C.~ ! T t X.c.x.v.c.c.z.c.o.D.m.n.v.n.c.n.K.D.[ W.J.x.x.n.c.v.c.' ].0.u ) =X=XoXM ; 3 .XE U E V.XXZ.~ J % >X>X>X",
">X>X>Xo +XQ M.C.V.Q Y Q t X.c.v.c.z.z.q.c.{ P.K.n.c.n.n.c.J.c.| L.v.t.v.c.c.c.c.f ^.t.: # $ = # > [ 3 .X) Q ~ ) j.N.) J $ >X>X>X",
">X>X>Xo +X) N.) V.~ E Q t X.z.c.k.t.t.q.q.[ D.m.c.c.c.z.c.c.x.X.L.D.t.x.x.x.c.x.s ^.0.f , , , e | u.3 Z.) N.V.V.N.Q ( J & >X>X>X",
">X>X>Xo Z.! ~ M.C.Q W Y 7 X.z.z.k.q.q.q.q.` S.n.z.k.z.c.z.c.y.} W.z.t.t.x.t.z.z.s ^.t.q.t.x.t.z.x.S.2 N.M.M.) M.N.( W J $ >X>X>X",
">X>X>Xo ! ! M.M.! U Y K x $.k.z.k.9.q.9.9.d c.n.k.q.c.c.k.z.t.' L.k.8.q.q.q.k.q.e K.0.8.t.z.8.-.6.B.2 Y M.V.( Q N.) E C $ >X>X>X",
">X>X>XO A L K J S D J D t @.l.z.9.9.9.:.9.` y.b.q.q.z.z.q.t.q.[ n.q.8.8.q.9.q.9.< J.9.=.8.-.o.-.&.h.2 x F J J J J C b n $ >X>X>X",
">X>X>X>X@ @ = n A I D S t ` 9.9.>.>.9.=.:.d y.z.9.9.t.q.9.t.8.[ c.q.-.-.8.:.9.9.< v.-.{ =.%.] ] $.r.2 n A J J F x O . . . >X>X>X",
">X>X>X>X>X>X>XK ) C.N.) 7 q >.>.=.=.=.=.%.q t.l.:.:.q.9.:.q.:.[ c.8.=.=.:.-.-.:., x.=.{ &.{ [ ] ] w.1 Q N.N.N.W = >X>X>X>X>X>X>X",
">X>X>X>X>X>X>XJ T / ) _ x g %.%.%.%.%.%.%.q t.l.>.>.9.>.:.9.-.[ z.-.=.=.=.=.=.-., x.=.` ` g j [ ` 7.1 .X( Q ! E & >X>X>X>X>X>X>X",
">X>X>X>X>X>X>XJ / ( / j.w q @.%.@.%.@.@.{ < :.9.%.%.>.=.>.:.%.` q.=.%.@.@.%.%.%.: q.%.d ` d q ` ` 8.r .XE ( ( E & >X>X>X>X>X>X>X",
">X>X>X>X>X>X>XK M./ T ) w 9 ] ] [ { ] ] ` < =.:.@.@.%.@.%.=.%.d 9.@.{ ] { @.] { > >.] q q d ` q d ..3 C.E ( ( / & >X>X>X>X>X>X>X"
};
