/* XPM */
static char *result[] = {
/* columns rows colors chars-per-pixel */
"64 64 128 2 ",
"   c black",
".  c #010101",
"X  c #020101",
"o  c #020202",
"O  c gray1",
"+  c #040404",
"@  c gray2",
"#  c #060606",
"$  c #070707",
"%  c #090909",
"&  c #0A0A09",
"*  c gray4",
"=  c #0B0A0A",
"-  c #0B0B0A",
";  c #0B0B0B",
":  c #0D0C0C",
">  c #101010",
",  c #121111",
"<  c #131313",
"1  c gray8",
"2  c #151414",
"3  c #151515",
"4  c #161515",
"5  c #161616",
"6  c gray9",
"7  c #191818",
"8  c #191919",
"9  c #191A1A",
"0  c gray10",
"q  c #1B1A1A",
"w  c #1B1B1B",
"e  c #1C1D1D",
"r  c #1D1D1D",
"t  c #1E1E1E",
"y  c gray12",
"u  c #1F2020",
"i  c #222020",
"p  c #232121",
"a  c #232222",
"s  c #232323",
"d  c #242323",
"f  c gray14",
"g  c #252424",
"h  c #252525",
"j  c #262525",
"k  c #272725",
"l  c gray15",
"z  c #272626",
"x  c #272727",
"c  c #282727",
"v  c #282826",
"b  c #282828",
"n  c #292828",
"m  c gray16",
"M  c #2A2A2A",
"N  c #2B2A2A",
"B  c gray17",
"V  c #2C2B2B",
"C  c #2C2C2C",
"Z  c #2D2C2C",
"A  c #2D2D2C",
"S  c #2D2D2D",
"D  c gray18",
"F  c #2F2F2F",
"G  c gray19",
"H  c #313030",
"J  c #313131",
"K  c #323030",
"L  c #323232",
"P  c #333232",
"I  c gray20",
"U  c #343434",
"Y  c #353434",
"T  c #353535",
"R  c #363535",
"E  c #373535",
"W  c gray21",
"Q  c #373636",
"!  c #373737",
"~  c gray22",
"^  c #393939",
"/  c #3A3939",
"(  c #3A3A3A",
")  c #3C3B3B",
"_  c #3E3C3C",
"`  c #3E3D3D",
"'  c #3F3E3E",
"]  c #3F3F3F",
"[  c #403F3F",
"{  c #413F3F",
"}  c #414040",
"|  c #424141",
" . c #434141",
".. c #434242",
"X. c #454343",
"o. c #454444",
"O. c #464444",
"+. c #464545",
"@. c #474545",
"#. c #474646",
"$. c #484646",
"%. c #484747",
"&. c #494747",
"*. c #484848",
"=. c #494848",
"-. c #4A4848",
";. c #4A4949",
":. c #4B4949",
">. c #4C4A4A",
",. c #4D4A4A",
"<. c #4C4B4B",
"1. c #4D4B4B",
"2. c #4E4C4C",
"3. c #4F4C4C",
"4. c #4F4D4D",
"5. c #504E4E",
"6. c #514F4F",
"7. c #524F4F",
"8. c #535151",
"9. c #545353",
"0. c #555353",
"q. c #565353",
"w. c #575454",
"e. c #5B5858",
"r. c #5C5959",
"t. c #8F9442",
"y. c #EEF36A",
"u. c None",
/* pixels */
"u.u.u.u.u.u.u.u.u.u.u.u.u.u.u.u.u.u.u.u.u.u.u.u.u.u.u.u.u.u.u.u.u.u.u.u.u.u.u.u.u.u.u.u.u.u.u.u.u.u.u.u.u.u.u.u.u.u.u.u.u.u.u.u.",
"u.u.u.u.u.u.u.u.u.u.u.u.u.u.u.u.u.u.u.u.u.u.u.u.u.u.u.u.u.u.u.u.u.u.u.u.u.u.u.u.u.u.u.u.u.u.u.u.u.u.u.u.u.u.u.u.u.u.u.u.u.u.u.u.",
"u.u.u.u.u.u.u.u.u.u.u.u.u.u.u.u.u.u.u.u.u.u.u.u.u.u.u.u.u.u.u.u.u.u.u.u.u.u.u.u.u.u.u.u.u.u.u.u.u.u.u.u.u.u.u.u.u.u.u.u.u.u.u.u.",
"u.u.u.u.u.u.u.u.u.u.u.u.u.u.u.u.u.u.u.u.u.u.u.u.u.u.u.u.u.u.u.u.u.u.u.u.u.u.u.u.u.u.u.u.u.u.u.u.u.u.u.u.u.u.u.u.u.u.u.u.u.u.u.u.",
"u.u.u.u.u.u.u.u.u.u.u.u.u.u.u.u.u.u.u.u.u.u.u.u.u.u.u.u.u.u.u.u.u.u.u.u.u.u.u.u.u.u.u.u.u.u.u.u.u.u.u.u.u.u.u.u.u.u.u.u.u.u.u.u.",
"u.u.u.u.u.u.u.u.u.u.u.u.u.u.u.u.u.u.u.u.u.u.u.u.u.u.u.u.u.u.u.u.u.u.u.u.u.u.u.u.u.u.u.u.u.u.u.u.u.u.u.u.u.u.u.u.u.u.u.u.u.u.u.u.",
"u.u.u.u.u.u.u.u.u.u.u.u.u.u.u.u.u.u.u.u.u.u.u.u.u.u.u.u.u.u.u.u.u.u.u.u.u.u.u.u.u.u.u.u.u.u.u.u.u.u.u.u.u.u.u.u.u.u.u.u.u.u.u.u.",
"u.u.u.u.u.u.u.u.u.u.u.u.u.u.u.u.u.u.u.u.u.u.u.u.u.u.u.u.u.u.u.u.u.u.u.u.u.u.u.u.u.u.u.u.u.u.u.u.u.u.u.u.u.u.u.u.u.u.u.u.u.u.u.u.",
"u.u.u.u.u.u.u.u.u.u.F F   J S 8 b b l l l l x S       t   u.u.u.u.u.u.u.u.u.u.u.u.u.u.u.u.u.u.u.u.u.u.u.u.u.u.u.u.u.u.u.u.u.u.u.",
"u.u.u.u.u.u.u.u.u.< D f B F F F b F F F F F F F F 8 M F F u.u.u.u.u.u.u.u.u.u.u.u.u.u.u.u.u.u.u.u.u.u.u.u.u.u.u.u.u.u.u.u.u.u.u.",
"u.u.u.u.u.u.u.u.u.  @ B , F F F F F F F F F F F F F $ F u.u.u.u.u.u.u.u.u.u.u.u.u.u.u.u.u.u.u.u.u.u.u.u.u.u.u.u.u.u.u.u.u.u.u.u.",
"u.u.u.u.u.u.u.u.u.u.r F F F F F F F F F F F F F F F % u.u.u.u.u.u.u.u.u.u.u.u.u.u.u.u.u.u.u.u.u.u.u.u.u.u.u.u.u.u.u.u.u.u.u.u.u.",
"u.u.u.u.u.u.u.u.u.u.  F S F F F F F F F F F F F G F   u.u.u.u.u.u.u.u.u.u.u.u.u.u.u.u.u.u.u.u.u.u.u.u.u.u.u.u.u.u.u.u.u.u.u.u.u.",
"u.u.u.u.u.u.u.u.u.u.u.F Y         F F F   t.y.  h z . u.u.u.u.u.u.u.u.u.u.u.u.u.u.u.u.u.u.u.u.u.u.u.u.u.u.u.u.u.u.u.u.u.u.u.u.u.",
"u.u.u.u.u.u.u.u.u.u.u.H B $ & - v F F F F A k x g g S u.u.u.u.u.u.u.u.u.u.u.u.u.u.u.u.u.u.u.u.u.u.u.u.u.u.u.u.u.u.u.u.u.u.u.u.u.",
"u.u.u.u.u.u.u.u.u.u.u.U 7 j l h p F F F F ..h g z h K u.u.u.u.u.u.u.u.u.u.u.u.u.u.u.u.u.u.u.u.u.u.u.u.u.u.u.u.u.u.u.u.u.u.u.u.u.",
"u.u.u.u.u.u.u.u.u.u.u.. F g # g 5.F F F F X h g g F = u.u.u.u.u.u.u.u.u.u.u.u.u.u.u.u.u.u.u.u.u.u.u.u.u.u.u.u.u.u.u.u.u.u.u.u.u.",
"u.u.u.u.u.u.u.u.u.u.u.u.F F h h U F F F F ,.F F F   u.u.u.u.u.u.u.u.u.u.u.u.u.u.u.u.u.u.u.u.u.u.u.u.u.u.u.u.u.u.u.u.u.u.u.u.u.u.",
"u.u.u.u.u.u.u.u.u.u.u.u.  F F B       *.    7.F 0 F   u.u.u.u.u.u.u.u.u.u.u.u.u.u.u.u.u.u.u.u.u.u.u.u.u.u.u.u.u.u.u.u.u.u.u.u.u.",
"u.u.u.u.u.u.u.u.u.u.u.u.u.+   l l h :   x m $ R b F ^ u.u.u.u.u.u.u.u.u.u.u.u.u.u.u.u.u.u.u.u.u.u.u.u.u.u.u.u.u.u.u.u.u.u.u.u.u.",
"u.u.u.u.u.u.u.u.u.u.u.u.u.. ; n F F S F F F   j F F F   u.u.u.u.u.u.u.u.u.u.u.u.u.u.u.u.u.u.u.u.u.u.u.u.u.u.u.u.u.u.u.u.u.u.u.u.",
"u.u.u.u.u.u.u.u.u.u.u.u.u.F l j + m M F N   x F F F F %.u.u.u.u.u.u.u.u.u.u.u.u.u.u.u.u.u.u.u.u.u.u.u.u.u.u.u.u.u.u.u.u.u.u.u.u.",
"u.u.u.u.u.u.u.u.u.u.u.u.u.F F F l l l j F F F F F F F [   u.u.u.u.u.u.u.u.u.u.u.u.u.u.u.u.u.u.u.u.u.u.u.u.u.u.u.u.u.u.u.u.u.u.u.",
"u.u.u.u.u.u.u.u.u.u.u.u.u.F F F F F F F F F F F F F F F ;.u.u.u.u.u.u.u.u.u.u.u.u.u.u.u.u.u.u.u.u.u.u.u.u.u.u.u.u.u.u.u.u.u.u.u.",
"u.u.u.u.u.u.u.u.u.u.u.u.u.F F F F F F F F F F F F F F F 8.F u.u.u.u.u.u.u.u.u.u.u.u.u.u.u.u.u.u.u.u.u.u.u.u.u.u.u.u.u.u.u.u.u.u.",
"u.u.u.u.u.u.u.u.u.u.u.u.  F F F F F F F F F F F F F F F F F F . u.u.u.u.u.u.u.u.u.u.u.u.u.u.u.u.u.u.u.u.u.u.u.u.u.u.u.u.u.u.u.u.",
"u.u.u.u.u.u.u.u.u.u.u.u.$.L F F F F F F F F F F F F F F F F F I u.u.u.u.u.u.u.u.u.u.u.u.u.u.u.u.u.u.u.u.u.u.u.u.u.u.u.u.u.u.u.u.",
"u.u.u.u.u.u.u.u.u.u.u.G :.B ] F F F F F F F F F x / F F F F F F 1 u.u.u.u.u.u.u.u.u.u.u.u.u.u.u.u.u.u.u.u.u.u.u.u.u.u.u.u.u.u.u.",
"u.u.u.u.u.u.u.u.u.u.  / F F F r F F F F F F :.G # F F F F F F F = u.u.u.u.u.u.u.u.u.u.u.u.u.u.u.u.u.u.u.u.u.u.u.u.u.u.u.u.u.u.u.",
"u.u.u.u.u.u.u.u.u.u.>.F F F F F F F F F F P F F F F F F F F F F . J u.u.u.u.u.u.u.u.u.u.u.u.u.u.u.u.u.u.u.u.u.u.u.u.u.u.u.u.u.u.",
"u.u.u.u.u.u.u.u.u.  Q F F F F F F F F F F F F F F F F F F F F J G e.4.  u.u.u.u.u.u.u.u.u.u.u.u.u.u.u.u.u.u.u.u.u.u.u.u.u.u.u.u.",
"u.u.u.u.u.u.u.u.u.G F F F F F F F F F F F F F F F F F F F F F +.F F S r.u.u.u.u.u.u.u.u.u.u.u.u.u.u.u.u.u.u.u.u.u.u.u.u.u.u.u.u.",
"u.u.u.u.u.u.u.u.u.  F F F F F F F F F F F F F F F F F F F Y } -.F F F F     u.u.u.u.u.u.u.u.u.u.u.u.u.u.u.u.u.u.u.u.u.u.u.u.u.u.",
"u.u.u.u.u.u.u.u.u.u.F F F F [ F F F F F F F F F F F F F =.3 :.$.F F F F F F 2.u.u.u.u.u.u.u.u.u.u.u.u.u.u.u.u.u.u.u.u.u.u.u.u.u.",
"u.u.u.u.u.u.u.u.u.u.F F F F F W F F F F F B   F F F F F m F X.F F F F F F F ~   u.u.u.u.u.u.u.u.u.u.u.u.u.u.u.u.u.u.u.u.u.u.u.u.",
"u.u.u.u.u.u.u.u.u.u.y F F F F m m F F F F b m F F F F F E W J B F F   F F F F &.u.u.u.u.u.u.u.u.u.u.u.u.u.u.u.u.u.u.u.u.u.u.u.u.",
"u.u.u.u.u.u.u.u.u.u.O.F F F F x N F F F F x l F F F F F F L J m F F ] F F F F F o.u.u.u.u.u.u.u.u.u.u.u.u.u.u.u.u.u.u.u.u.u.u.u.",
"u.u.u.u.u.u.u.u.u.u.=.F F F F x u V F F F z   b F F F F F 1.G n F 2 F F F F F F F F u.u.u.u.u.u.u.u.u.u.u.u.u.u.u.u.u.u.u.u.u.u.",
"u.u.u.u.u.u.u.u.u.u.] F F F F l h m n F F l   b F F F F F O.m B F &.F F F F F F F F   u.u.u.u.u.u.u.u.u.u.u.u.u.u.u.u.u.u.u.u.u.",
"u.u.u.u.u.u.u.u.u.u.C F F F F F h h B c m l l b F F F F F F < F   @.F F F F F F F F F u.u.u.u.u.u.u.u.u.u.u.u.u.u.u.u.u.u.u.u.u.",
"u.u.u.u.u.u.u.u.u.u.! F F F F F F l     F w Z c F F F F F C b F . D F F F F F F   F F   u.u.u.u.u.u.u.u.u.u.u.u.u.u.u.u.u.u.u.u.",
"u.u.u.u.u.u.u.u.u.u.>.F F F F F F b . u.u.  c C F F F F   l x #.i F F F F F F F @ B F L u.u.u.u.u.u.u.u.u.u.u.u.u.u.u.u.u.u.u.u.",
"u.u.u.u.u.u.u.u.u.u.. D F F F F F b   u.u.F b F F F F   h g   E D F F F F F F F @ x F %.u.u.u.u.u.u.u.u.u.u.u.u.u.u.u.u.u.u.u.u.",
"u.u.u.u.u.u.u.u.u.u.u.F F F F F F b u.u.o B M F F F F S g g x o F F F F F F F F   h F G u.u.u.u.u.u.u.u.u.u.u.u.u.u.u.u.u.u.u.u.",
"u.u.u.u.u.u.u.u.u.u.u.u.F F F F F n . u.  m F F F F O g f g x U F F F F F F F 3.e h F F 6 u.u.u.u.u.u.u.u.u.u.u.u.u.u.u.u.u.u.u.",
"u.u.u.u.u.u.u.u.u.u.u.u.  F F F F V > u.F m F F F F x g g f l T F F F F F F F 4.j h F F . u.u.u.u.u.u.u.u.u.u.u.u.u.u.u.u.u.u.u.",
"u.u.u.u.u.u.u.u.u.u.u.u.u.F F F F F n o C m F F F   u.x h g g F F F F F F F F M h h F F 9.u.u.u.u.u.u.u.u.u.u.u.u.u.u.u.u.u.u.u.",
"u.u.u.u.u.u.u.u.u.u.u.u.u.G F F F F b   m F F F F u.u.u.F c g g b F F F F F F . z h F F G u.u.u.u.u.u.u.u.u.u.u.u.u.u.u.u.u.u.u.",
"u.u.u.u.u.u.u.u.u.u.u.u.u.  F F F G h m F F F F   u.u.u.u.  F h h 9 F F F F F F ; x F F F 4 u.u.u.u.u.u.u.u.u.u.u.u.u.u.u.u.u.u.",
"u.u.u.u.u.u.u.u.u.u.u.u.u.. F F F h * n F F F F   u.u.u.u.u.u.F M h   F F F F F   u.c F F 4.u.u.u.u.u.u.u.u.u.u.u.u.u.u.u.u.u.u.",
"u.u.u.u.u.u.u.u.u.u.u.u.u.. F F F h q b F F F F u.u.u.u.u.u.u.u.S l w F F F F F [ u.d B F J . u.u.u.u.u.u.u.u.u.u.u.u.u.u.u.u.u.",
"u.u.u.u.u.u.u.u.u.u.u.u.u.  F F l h m l F F F G u.u.u.u.u.u.u.u.u.z m F F F F >.  u.u.z F F 6.u.u.u.u.u.u.u.u.u.  F u.u.u.u.u.u.",
"u.u.u.u.u.u.u.u.u.u.u.u.u.G F F j h x N F F F s u.u.u.u.u.u.u.u.u.x b F F F F   u.u.u.  b F F w u.u.u.u.u.u.q.6.F F u.u.u.u.u.u.",
"u.u.u.u.u.u.u.u.u.u.u.u.a F F F h h F F F F F 1 u.u.u.u.u.u.u.u.f b 5 F F F F u.u.u.u.u.u.b b F 4._ D 4.4.D m x x u.u.u.u.u.u.u.",
"u.u.u.u.u.u.u.u.u.u.u.:.&.F F F l j D F F F F   u.u.u.u.u.u.u.F M w D F F F J u.u.u.u.u.u.u.. b b F F F m l z   u.u.u.u.u.u.u.u.",
"u.u.u.u.u.u.u.u.u.u.u.4.w.8.0.1.D F F F F F F F   u.u.  ' F F F   ( F F F F L u.u.u.u.u.u.u.u.u.  b b b B   u.u.u.u.u.u.u.u.u.u.",
"u.u.u.u.u.u.u.u.u.u.u.F B m n m G 1.+.{ F F F F F u.u.F F ) -.2.-.N | F F F 3 u.u.u.u.u.u.u.u.u.u.u.u.u.u.u.u.u.u.u.u.u.u.u.u.u.",
"u.u.u.u.u.u.u.u.u.u.u.u.  u.  u.u.F ` <.L F F F F h u.u.F F   F F   F . F F   u.u.u.u.u.u.u.u.u.u.u.u.u.u.u.u.u.u.u.u.u.u.u.u.u.",
"u.u.u.u.u.u.u.u.u.u.u.u.u.u.u.u.u.J F . 1.:.>...F F u.u.  u.u.u.u.u.u.  D   u.u.u.u.u.u.u.u.u.u.u.u.u.u.u.u.u.u.u.u.u.u.u.u.u.u.",
"u.u.u.u.u.u.u.u.u.u.u.u.u.u.u.u.u.u.. F F F S 5.:. .u.u.u.u.u.u.u.u.u.u.u.u.u.u.u.u.u.u.u.u.u.u.u.u.u.u.u.u.u.u.u.u.u.u.u.u.u.u.",
"u.u.u.u.u.u.u.u.u.u.u.u.u.u.u.u.u.u.u.u.u.  s J . u.u.u.u.u.u.u.u.u.u.u.u.u.u.u.u.u.u.u.u.u.u.u.u.u.u.u.u.u.u.u.u.u.u.u.u.u.u.u.",
"u.u.u.u.u.u.u.u.u.u.u.u.u.u.u.u.u.u.u.u.u.u.u.u.u.u.u.u.u.u.u.u.u.u.u.u.u.u.u.u.u.u.u.u.u.u.u.u.u.u.u.u.u.u.u.u.u.u.u.u.u.u.u.u.",
"u.u.u.u.u.u.u.u.u.u.u.u.u.u.u.u.u.u.u.u.u.u.u.u.u.u.u.u.u.u.u.u.u.u.u.u.u.u.u.u.u.u.u.u.u.u.u.u.u.u.u.u.u.u.u.u.u.u.u.u.u.u.u.u.",
"u.u.u.u.u.u.u.u.u.u.u.u.u.u.u.u.u.u.u.u.u.u.u.u.u.u.u.u.u.u.u.u.u.u.u.u.u.u.u.u.u.u.u.u.u.u.u.u.u.u.u.u.u.u.u.u.u.u.u.u.u.u.u.u."
};
