/* XPM */
static char *result[] = {
/* columns rows colors chars-per-pixel */
"64 64 45 1 ",
"  c #5F3808",
". c #613A08",
"X c #805704",
"o c #815804",
"O c #966C0C",
"+ c #986F0B",
"@ c #9A6F0C",
"# c #9A700C",
"$ c #9C710C",
"% c #9D720D",
"& c #BA850D",
"* c #BB870C",
"= c #BD880D",
"- c #BE890D",
"; c #DD8010",
": c #DE8210",
"> c #DF8410",
", c #DF911F",
"< c #DF921F",
"1 c #E0850E",
"2 c #E0860F",
"3 c #E08610",
"4 c #E0931F",
"5 c #EFAB0E",
"6 c #FDB60E",
"7 c #FDB60F",
"8 c #FFB60F",
"9 c #FFB70F",
"0 c #FDBE09",
"q c #FFBE0A",
"w c #FFBF0A",
"e c #FFB80E",
"r c #FFB80F",
"t c #FFB90F",
"y c #DD8F20",
"u c #DD9020",
"i c #DE9120",
"p c #E09420",
"a c #E19420",
"s c #E29420",
"d c #E69720",
"f c #FFC107",
"g c #FFC008",
"h c #FFC00A",
"j c None",
/* pixels */
"jjjjjjjjjjjjjjjjjjjjjjjjjjjjjjjjjjjjjjjjjjjjjjjjjjjjjjjjjjjjjjjj",
"jjjjjjjjjjjjjjjjjjjjjjjjjjjjjjjjjjjjjjjjjjjjjjjjjjjjjjjjjjjjjjjj",
"jjjjjjjjjjjjjjjjjjjjjjjjjjjjjjjjjjjjjjjjjjjjjjjjjjjjjjjjjjjjjjjj",
"jjjjjjjjjjjjjjjjjjjjjjjjjjjjjjjjjjjjjjjjjjjjjjjjjjjjjjjjjjjjjjjj",
"jjjjjjjjjjjjjjjjjjjjjjj99999999jjjjjjjjjjjjjjjjjjjjjjjjjjjjjjjjj",
"jjjjjjjjjjjjjjjjjjjjj999999999999jjjjjjjjjjjjjjjjjjjjjjjjjjjjjjj",
"jjjjjjjjjjjjjjjjjjjjj99999999999993jjjjjjjjjjjjjjjjjjjjjjjjjjjjj",
"jjjjjjjjjjjjjjjjjjjjjjjjjj3:99999993jjjjjjjjjjjjjjjjjjjjjjjjjjjj",
"jjjjjjjjjjjjjjjjjjjjjjjjj3333399999333jjjjjjjjjjjjjjjjjjjjjjjjjj",
"jjjjjjjjjjjjjjjjjjjjjjj33333333t8qq3333jjjjjjjjjjjjjjjjjjjjjjjjj",
"jjjjjjjjjjjjjjjjjjjjj3333333333pi9q9:3333jjjjjjjjjjjjjjjjjjjjjjj",
"jjjjjjjjjjjjjjjjjjjj33333333334444qq8t333jjjjjjjjjjjjjjjjjjjjjjj",
"jjjjjjjjjjjjjjjjjjjj333333p44444449qqh33333jjjjjjjjjjjjjjjjjjjjj",
"jjjjjjjjjjjjjjjjjjjj3333344444444449ww93333jj9jjjjjjjjjjjjjjjjjj",
"jjjjjjjjjjjjjjjjjjj33333444444444444gw943333jjjjjjjjjjjjjjjjjjjj",
"jjjjjjjjjjjjjjjjjjj3331444444444a=44gqq43333jjjjjjjjjjjjjjjjjjjj",
"jjjjjjjjjjjjjj9jjjj33444444444======t8q93333jjjjjjjjjjjjjjjjjjjj",
"jjjjjjjjjjjjjjjjjj3334u994444========&q941333jjjjjjjjjjjjjjjjjjj",
"jjjjjjjjjjjjjjjjjj33998qq4444=====$$$Oq441333j59jjjjjjjjjjjjjjjj",
"jjjjjjjjjjjjjjjj33339qqq444s====-$$$$Oq444433j59jjjjjjjjjjjjjjjj",
"jjjjjjjjjjjjjjjj3339qqf4444s===#$$$$$O9444443j599jjjjjjjjjjjjjjj",
"jjjjjjjjjjjjjjj33339q,4444*====#$$$$$$$$44443j599jjjjjjjjjjjjjjj",
"jjjjjjjjjjjjjjj33>9qq,4444*====#$$$$$$$$44433j599jjjjjjjjjjjjjjj",
"jjjjjjjjjjjjjjj33>9q9<4444*===$$$$$XXXXX444333799jjjjjjjjjjjjjjj",
"jjjjjjjjjjjjjjj33>9q44444=====$$$$XXXXXX444433799jjjjjjjjjjjjjjj",
"jjjjjjjjjjjjjj333>q944444=====$$$$XXXXXX444433799jjjjjjjjjjjjjjj",
"jjjjjjjjjjjjjjj3r9q444444=====$$%XXXXXX.444433799jjjjjjjjjjjjjjj",
"jjjjjjjjjjjjjjj3wqq444444====$$$%XXXXo...d4433799jjjjjjjjjjjjjjj",
"jjjjjjjjjjjjjjj9qqq444444====$$$%XXX ....d4439999jjjjjjjjjjjjjjj",
"jjjjjjjjjjjjjjjqq04444444====$$$%XXX ....d4439999jjjjjjjjjjjjjjj",
"jjjjjjjjjjjjjj9q964444444====$$$%XXX ....d443999jjjjjjjjjjjjjjjj",
"jjjjjjjjjjjjjj9q>24444444====$$$%XXX ....d443999jjjjjjjjjjjjjjjj",
"jjjjjjjjjjjjjj9q>24444444====$$$%XXX ...44443999jjjjjjjjjjjjjjjj",
"jjjjjjjjjjjjjj99>24444444====$$$%XXX ...44443999jjjjjjjjjjjjjjjj",
"jjjjjjjjjjjjj993324444444====$$$%XXX ...44449999jjjjjjjjjjjjjjjj",
"jjjjjjjjjjjjj993324444444====$$$%XXX ...44449999jjjjjjjjjjjjjjjj",
"jjjjjjjjjjjjjj93324444444====$$$$$XXXo..44449999jjjjjjjjjjjjjjjj",
"jjjjjjjjjjjjj993324444444====$$$$$XXXXXX44449999jjjjjjjjjjjjjjjj",
"jjjjjjjjjjjjj993324444444====$$$$$XXXXXX44449999jjjjjjjjjjjjjjjj",
"jjjjjjjjjjjjj993324444444====$$$$$XXXXXX444499jjjjjjjjjjjjjjjjjj",
"jjjjjjjjjjjjj993324444444====$$$$$$XXXXX44<9q9jjjjjjjjjjjjjjjjjj",
"jjjjjjjjjjjjj993333444444====$$$$$$$$$$$44,qq333jjjjjjjjjjjjjjjj",
"jjjjjjjjjjjjj993333444444=====$$$$$$$$$$4fqq93jjjjjjjjjjjjjjjjjj",
"jjjjjjjjjjjjj99j33349<444=====$$$$$$$$$44fw333jjjjjjjjjjjjjjjjjj",
"jjjjjjjjjjjjjj9j33349qqq4=====$$$$$$$$$4qqw333jjjjjjjjjjjjjjjjjj",
"jjjjjjjjjjjjjj9jjj34998q44*====#$$$$$$$4q;333jjjjjjjjjjjjjjjjjjj",
"jjjjjjjjjjjjjj9jjj334e8q44*=====-$$$$+4qq;333jjjjjjjjjjjjjjjjjjj",
"jjjjjjjjjjjjjj9jjj334e8qq4*========$$+4941333jjjjjjjjjjjjjjjjjjj",
"jjjjjjjjjjjjjj9jjj3344yqq44s========@$$43333jjjjjjjjjjjjjjjjjjjj",
"jjjjjjjjjjjjjj9jjj3334u9q4444=======s4433333jjjjjjjjjjjjjjjjjjjj",
"jjjjjjjjjjjjjjjjjj3334p3q9i44=====444443333jjjjjjjjjjjjjjjjjjjjj",
"jjjjjjjjjjjjjjjjjjj333339qi444=a44444p33333jjjjjjjjjjjjjjjjjjjjj",
"jjjjjjjjjjjjjjjjjjjj33339qqg444444433333333jjjjjjjjjjjjjjjjjjjjj",
"jjjjjjjjjjjjjjjjjjjj333339ww9444444333333jjjjjjjjjjjjjjjjjjjjjjj",
"jjjjjjjjjjjjjjjjjjjjj3333998q944p3333333jjjjjj59jjjjjjjjjjjjjjjj",
"jjjjjjjjjjjjjjjjjjjjj333333:9q3333333333jjjjj999jjjjjjjjjjjjjjjj",
"jjjjjjjjjjjjjjjjjjjjjjj333333999t333333j9jjjjjjjjjjjjjjjjjjjjjjj",
"jjjjjjjjjjjjjjjjjjjjjjjj333339999933jjj9999jjjjjjjjjjjjjjjjjjjjj",
"jjjjjjjjjjjjjjjjjjjjjjjjj3333999999999999jjjjjjjjjjjjjjjjjjjjjjj",
"jjjjjjjjjjjjjjjjjjjjjjjjjjjjjj9999999999jjjjjjjjjjjjjjjjjjjjjjjj",
"jjjjjjjjjjjjjjjjjjjjjjjjjjjjjjj99999999jjjjjjjjjjjjjjjjjjjjjjjjj",
"jjjjjjjjjjjjjjjjjjjjjjjjjjjjjjjjjjjjjjjjjjjjjjjjjjjjjjjjjjjjjjjj",
"jjjjjjjjjjjjjjjjjjjjjjjjjjjjjjjjjjjjjjjjjjjjjjjjjjjjjjjjjjjjjjjj",
"jjjjjjjjjjjjjjjjjjjjjjjjjjjjjjjjjjjjjjjjjjjjjjjjjjjjjjjjjjjjjjjj"
};
