/* XPM */
static char *result[] = {
/* columns rows colors chars-per-pixel */
"64 64 35 1 ",
"  c black",
". c #161616",
"X c #2F0000",
"o c #27201D",
"O c gray13",
"+ c #362D28",
"@ c #39332F",
"# c #433C39",
"$ c #5A3E35",
"% c #5D4037",
"& c #51443C",
"* c #64463C",
"= c #6A4A3F",
"- c #0A377E",
"; c #6D4C41",
": c #735044",
"> c #755246",
", c #795548",
"< c #A60000",
"1 c #CE0000",
"2 c #D50000",
"3 c #A18778",
"4 c #A78C7C",
"5 c #0D47A1",
"6 c gray75",
"7 c #D1AF9B",
"8 c #DEBAA5",
"9 c #EEC9B2",
"0 c #F8D0B8",
"q c gray79",
"w c #CECECE",
"e c gray96",
"r c gray99",
"t c white",
"y c None",
/* pixels */
"yyyyyyyyyyyyyyyyyyyyyyyyyyyyyyyyyyyyyyyyyyyyyyyyyyyyyyyyyyyyyyyy",
"yyyyyyyyyyyyyyyyyyyyyyyyyyyyyyyyyyyyyyyyyyyyyyyyyyyyyyyyyyyyyyyy",
"yyyyyyyyyyyyyyyyyyyyyyyyyyyyyyyyyyyyyyyyyyyyyyyyyyyyyyyyyyyyyyyy",
"yyyyyyyyyyyyyyyyyyyyyyyyyyyyyyyyyyyyyyyyyyyyyyyyyyyyyyyyyyyyyyyy",
"yyyyyyyyyyyyyyyyyyyyyyyyyyyyyyyyyyyyyyyyyyyyyyyyyyyyyyyyyyyyyyyy",
"yyyyyyyyyyyyyyyyyyyyyyyyyyyyyyyyyyy;;;;;;;;;;%%%%%%%%%%%%%%yyyyy",
"yyyyyyyyyyyyyyyyyyyyyyyyyyyyyyyyyyy;;;;;;;;;;%%%%%%%%%%%%%%yyyyy",
"yyyyyyyyyyyyyyyyyyyyy%%%%%%%%%%%%%*;;;;;;;;;;;;;,,,,,,,;;;;%%%yy",
"yyyyyyyyyyyyyyyyyyyyy%%%%%%%%%%%%%*;;;;;;;;;;;;;,,,,,,,;;;;%%%yy",
"yyyyyyyyyyyyyyyyyyyyy%%%%%%%%%%%%%*;;;;;;;;;;;;;,,,,,,,;;;;%%%yy",
"yyyyyyyyyyyyyy;;;%%%%%%%,,,,,,,;;;;;;;,,,,,,,,,,;;;;,,,;;;;yyyyy",
"yyyyyyyyyyyyyy;;;%%%%%%%,,,,,,,;;;;;;;,,,,,,,,,,;;;;,,,;;;;yyyyy",
"yyyyyyyyyy$%%%,,,,,,,,,,;;;;;;;;;;:,,,,,,,,,,,,,;;;;,,,%%%%yyyyy",
"yyyyyyyyyy$%%%,,,,,,,,,,;;;;;;;;;;:,,,,,,,,,,,,,;;;;,,,%%%%yyyyy",
"yyyyyyyyyy$%%%,,,,,,,,,,;;;;;;;;;;:,,,,,,,,,,,,,;;;;,,,%%%%yyyyy",
"yyyyyyyyyy>,,,,,,,,,,;;;%%%%%%%000000000000000000000;;;yyyyyyyyy",
"yyyyyyyyyy>,,,,,,,,,,;;;%%%%%%%000000000000000000000;;;yyyyyyyyy",
"yyyyyyyyyy=;;;00000000000000000000000000000000000000;;;yyyyyyyyy",
"yyyyyyyyyy=;;;00000000000000000000000000000000000000;;;yyyyyyyyy",
"yyyyyyyyyy=;;;00000000000000000000000000000000000000;;;yyyyyyyyy",
"yyyyyyyyyy$%%%00000000000000000000000000000000000000%%%yyyyyyyyy",
"yyyyyyyyyy$%%%00000000000000000000000000000000000000%%%yyyyyyyyy",
"yyyyyyyyyy90000000000      o0000000000       0000000000yyyyyyyyy",
"yyyyyyyyyy90000000000      o0000000000       0000000000yyyyyyyyy",
"yyyyyyyyyy90000000000      o0000000000       0000000000yyyyyyyyy",
"yyyyyyyyyy900000000000000000000000000000000000000000000yyyyyyyyy",
"yyyyyyyyyy900000000000000000000000000000000000000000000yyyyyyyyy",
"yyyyyyyyyy90000000000tttOOO#0000000000OOOwttt0000000000yyyyyyyyy",
"yyyyyyyyyy90000000000tttOOO#0000000000OOOwttt0000000000yyyyyyyyy",
"yyyyyyyyyy34440000000rrr...@0000000000...qrrr0000000444yyyyyyyyy",
"yyyyyyyyyyyyyy0000000eee   o0000000000   6eee0000000yyyyyyyyyyyy",
"yyyyyyyyyyyyyy0000000eee   o0000000000   6eee0000000yyyyyyyyyyyy",
"yyyyyyyyyyyyyyyyy0000000000000000000000000000000yyyyyyyyyyyyyyyy",
"yyyyyyyyyyyyyyyyy0000000000000000000000000000000yyyyyyyyyyyyyyyy",
"yyyyyyyyyyyyyy   &&&&0000008&&&&&&&&&&0000000&&&    yyyyyyyyyyyy",
"yyyyyyyyyyyyyy       0000007          0000000       yyyyyyyyyyyy",
"yyyyyyyyyyyyyy       0000007          0000000       yyyyyyyyyyyy",
"yyyyyyyyyy    2222222   00000000000000000+   2222222   yyyyyyyyy",
"yyyyyyyyyy    2222222   00000000000000000+   2222222   yyyyyyyyy",
"yyyyyyy   12222222222222                 <2222222222222    yyyyy",
"yyyyyyy   12222222222222                 <2222222222222    yyyyy",
"yyyyyyy   12222222222222                 <2222222222222    yyyyy",
"yyy    0000000222    222222222222222222222222   22220000000   yy",
"yyy    0000000222    222222222222222222222222   22220000000   yy",
"yyy    0000000   2222222222222222222222222222222    0000000   yy",
"yyy    0000000   2222222222222222222222222222222    0000000   yy",
"yyy    0000000   2222222222222222222222222222222    0000000   yy",
"yyyyyyy                 22222222222222222X                 yyyyy",
"yyyyyyy                 22222222222222222X                 yyyyy",
"yyyyyyyyyyyyyy   5555555                 -555555    yyyyyyyyyyyy",
"yyyyyyyyyyyyyy   5555555                 -555555    yyyyyyyyyyyy",
"yyyyyyyyyyyyyy   5555555                 -555555    yyyyyyyyyyyy",
"yyyyyyyyyyyyyy   5555555555555555555555555555555    yyyyyyyyyyyy",
"yyyyyyyyyyyyyy   5555555555555555555555555555555    yyyyyyyyyyyy",
"yyyyyyyyyyyyyy   5555555                 -555555    yyyyyyyyyyyy",
"yyyyyyyyyyyyyy   5555555                 -555555    yyyyyyyyyyyy",
"yyyyyyyyyyyyyy   5555555                 -555555    yyyyyyyyyyyy",
"yyyyyyyyyyyyyyyyy       yyyyyyyyyyyyyyyyy       yyyyyyyyyyyyyyyy",
"yyyyyyyyyyyyyyyyy       yyyyyyyyyyyyyyyyy       yyyyyyyyyyyyyyyy",
"yyyyyyyyyyyyyyyyyyyyyyyyyyyyyyyyyyyyyyyyyyyyyyyyyyyyyyyyyyyyyyyy",
"yyyyyyyyyyyyyyyyyyyyyyyyyyyyyyyyyyyyyyyyyyyyyyyyyyyyyyyyyyyyyyyy",
"yyyyyyyyyyyyyyyyyyyyyyyyyyyyyyyyyyyyyyyyyyyyyyyyyyyyyyyyyyyyyyyy",
"yyyyyyyyyyyyyyyyyyyyyyyyyyyyyyyyyyyyyyyyyyyyyyyyyyyyyyyyyyyyyyyy",
"yyyyyyyyyyyyyyyyyyyyyyyyyyyyyyyyyyyyyyyyyyyyyyyyyyyyyyyyyyyyyyyy"
};
