/* XPM */
static char *result[] = {
/* columns rows colors chars-per-pixel */
"64 64 54 1 ",
"  c black",
". c #0F0D0B",
"X c #32211D",
"o c #34241E",
"O c gray13",
"+ c #3D2B25",
"@ c #3F2C26",
"# c #580000",
"$ c #7D0000",
"% c #46302A",
"& c #533A32",
"* c #563B33",
"= c #573D34",
"- c #5D4037",
"; c #614339",
": c #62443A",
"> c #66473D",
", c #67493F",
"< c #68483E",
"1 c #69493F",
"2 c #051D43",
"3 c #0A367A",
"4 c #6B4A40",
"5 c #6B4B40",
"6 c #6C4B40",
"7 c #6D4C41",
"8 c #714F43",
"9 c #67564C",
"0 c #725044",
"q c #745145",
"w c #745245",
"e c #755246",
"r c #765346",
"t c #775347",
"y c #795548",
"u c #7A5B4F",
"i c #705F55",
"p c #D50000",
"a c #876557",
"s c #917A6C",
"d c #E3564C",
"f c #0D47A1",
"g c #BC9E8B",
"h c #BC9F8B",
"j c #C9A995",
"k c #E5C0AA",
"l c #EAC5AE",
"z c #F8D0B8",
"x c #F8D3BC",
"c c #F7DFD1",
"v c #FBE3D5",
"b c gray96",
"n c white",
"m c None",
/* pixels */
"mmmmmmmmmmmmmmmmmmmmmmmmmmmmmmmmmmmmmmmmmmmmmmmmmmmmmmmmmmmmmmmm",
"mmmmmmmmmmmmmmmmmmmmmmmmmmmmmmmmmmmmmmmmmmmmmmmmmmmmmmmmmmmmmmmm",
"mmmmmmmmmmmmmmmmmmmmmmmmmmmmmmmmmmmmmmmmmmmmmmmmmmmmmmmmmmmmmmmm",
"mmmmmmmm-----------mmmmmmmmmmmmmmmmmmmmmmmmmmmmmmmmmmmmmmmmmmmmm",
"mmmmmmmm-----------mmmmmmmmmmmmmmmmmmmmmmmmmmmmmmmmmmmmmmmmmmmmm",
"mmmmXooo---->>>5777++++ooommmmmmmmmmmmmmmmmmmmmmmmmmmmmmmmmmmmmm",
"mmmm*-------777ryyy7777---mmmmmmmmmmmmmmmmmmmmmmmmmmmmmmmmmmmmmm",
"mmmm*-------777ryyy7777---mmmmmmmmmmmmmmmmmmmmmmmmmmmmmmmmmmmmmm",
"mmmm*---yyyy777ryyyyyyyyyy07777777777@mmmmmmmmmmmmmmmmmmmmmmmmmm",
"mmmm*---yyyy777ryyyyyyyyyy07777777777@mmmmmmmmmmmmmmmmmmmmmmmmmm",
"mmmm*---qqqq7770qqqyyyyyyye0000000000=mmmmmmmmmmmmmmmmmmmmmmmmmm",
"mmmm*---77777777777yyyyyyyyyyyyyyyyyyq7777777---%mmmmmmmmmmmmmmm",
"mmmm*---77777777777yyyyyyyyyyyyyyyyyyq7777777---%mmmmmmmmmmmmmmm",
"mmmmmmmmyyyy7777777777777777777777yyyyyyyyyyy7771---mmmmmmmmmmmm",
"mmmmmmmmyyyy7777777777777777777777yyyyyyyyyyy7771---mmmmmmmmmmmm",
"mmmmmmmm&&&&<<<<<<<<<<<<<<47777777eeeeeeeyyyy8887:::mmmmmmmmmmmm",
"mmmmmmmmmmmm-------------->77777777777777yyyyyyyr777mmmmmmmmmmmm",
"mmmmmmmmmmmm-------------->77777777777777yyyyyyyr777mmmmmmmmmmmm",
"mmmmmmmmmmmmzzzzzzzzzzzzzzzzzz----7777777yyyyyyyr777mmmmmmmmmmmm",
"mmmmmmmmmmmmzzzzzzzzzzzzzzzzzz----7777777yyyyyyyr777mmmmmmmmmmmm",
"mmmmmmmmmmmmzzzzzzzjjjjjjjkzzzuuuuaaaaaaaqqqqtttw777mmmmmmmmmmmm",
"mmmmmmmmmmmmzzzzzzz       szzzzzzzzzzzzzz----7777777mmmmmmmmmmmm",
"mmmmmmmmmmmmzzzzzzz       szzzzzzzzzzzzzz----7777777mmmmmmmmmmmm",
"mmmmmmmmmmmmzzzzzzzzzzzzzz9   zzzzzzzzzzz----7777777mmmmmmmmmmmm",
"mmmmmmmmmmmmzzzzzzzzzzzzzz9   zzzzzzzzzzz----7777777mmmmmmmmmmmm",
"mmmmmmmmmmmmzzzzzzzllllxxxi...zzzzzzzzzzz,,,,6666777mmmmmmmmmmmm",
"mmmmmmmmmmmmzzzzzzzOOOOnnnvzzzzzzzzzzzzzzzzzz---;777mmmmmmmmmmmm",
"mmmmmmmmmmmmzzzzzzzOOOOnnnvzzzzzzzzzzzzzzzzzz---;777mmmmmmmmmmmm",
"mmmmmmmmmmmmzzzzzzz    bbbczzzzzzzzzzzzzzzzzz-------mmmmmmmmmmmm",
"mmmmmmmmmmmmzzzzzzz    bbbczzzzzzzzzzzzzzzzzz-------mmmmmmmmmmmm",
"mmmmmmmmmmmmzzzzzzz    bbbczzzzzzzzzzzzzzzzzz-------mmmmmmmmmmmm",
"mmmmmmmmmmmmzzzzzzzzzzzzzzzzzzzzzzzzzzzzzzzzzzzzzzzzmmmmmmmmmmmm",
"mmmmmmmmmmmmzzzzzzzzzzzzzzzzzzzzzzzzzzzzzzzzzzzzzzzzmmmmmmmmmmmm",
"mmmmmmmmmmmmmmmhzzz       szzzzzzzzzzzzzzzzzzzzzg   mmmmmmmmmmmm",
"mmmmmmmmmmmmmmmhzzz       szzzzzzzzzzzzzzzzzzzzzg   mmmmmmmmmmmm",
"mmmmmmmmmmmmmmmhzzz       szzzzzzzzzzzzzzzzzzzzzg   mmmmmmmmmmmm",
"mmmmmmmmmmmmmmmmmmmzzzzzzzdpppppppppp$           mmmmmmmmmmmmmmm",
"mmmmmmmmmmmmmmmmmmmzzzzzzzdpppppppppp$           mmmmmmmmmmmmmmm",
"mmmmmmmmmmmmmmmmmmmmmmm   $pppppppppppppp    mmmmmmmmmmmmmmmmmmm",
"mmmmmmmmmmmmmmmmmmmmmmm   $pppppppppppppp    mmmmmmmmmmmmmmmmmmm",
"mmmmmmmmmmmmmmmmmmmmmmm   $pppppppppppppp    mmmmmmmmmmmmmmmmmmm",
"mmmmmmmmmmmmmmmmmmmmmmm   $pppppppppppppp    mmmmmmmmmmmmmmmmmmm",
"mmmmmmmmmmmmmmmmmmmmmmm   $pppppppppppppp    mmmmmmmmmmmmmmmmmmm",
"mmmmmmmmmmmmmmmmmmm    pppppppppppppp$   pppp    mmmmmmmmmmmmmmm",
"mmmmmmmmmmmmmmmmmmm    pppppppppppppp$   pppp    mmmmmmmmmmmmmmm",
"mmmmmmmmmmmmmmmmmmm    pppppppppppppp$   pppp    mmmmmmmmmmmmmmm",
"mmmmmmmmmmmmmmmmmmm       szzzzzzz   #ppppppp    mmmmmmmmmmmmmmm",
"mmmmmmmmmmmmmmmmmmm       szzzzzzz   #ppppppp    mmmmmmmmmmmmmmm",
"mmmmmmmmmmmmmmmmmmm       szzzzzzz           fff3   mmmmmmmmmmmm",
"mmmmmmmmmmmmmmmmmmm       szzzzzzz           fff3   mmmmmmmmmmmm",
"mmmmmmmmmmmmmmmmmmm       szzzzzzz           fff3   mmmmmmmmmmmm",
"mmmmmmmmmmmmmmm    fffffff2       ffffffffffffff3   mmmmmmmmmmmm",
"mmmmmmmmmmmmmmm    fffffff2       ffffffffffffff3   mmmmmmmmmmmm",
"mmmmmmmmmmmmmmm    fffffffffff       2ffffffffffffff    mmmmmmmm",
"mmmmmmmmmmmmmmm    fffffffffff       2ffffffffffffff    mmmmmmmm",
"mmmmmmmmmmmmmmm    fffffffffff       2ffffffffffffff    mmmmmmmm",
"mmmmmmmmmmmmmmmmmmm           mmmmmmmm   fffffffffff    mmmmmmmm",
"mmmmmmmmmmmmmmmmmmm           mmmmmmmm   fffffffffff    mmmmmmmm",
"mmmmmmmmmmmmmmmmmmmmmmmmmmmmmmmmmmmmmmmmm           mmmmmmmmmmmm",
"mmmmmmmmmmmmmmmmmmmmmmmmmmmmmmmmmmmmmmmmm           mmmmmmmmmmmm",
"mmmmmmmmmmmmmmmmmmmmmmmmmmmmmmmmmmmmmmmmm           mmmmmmmmmmmm",
"mmmmmmmmmmmmmmmmmmmmmmmmmmmmmmmmmmmmmmmmmmmmmmmmmmmmmmmmmmmmmmmm",
"mmmmmmmmmmmmmmmmmmmmmmmmmmmmmmmmmmmmmmmmmmmmmmmmmmmmmmmmmmmmmmmm",
"mmmmmmmmmmmmmmmmmmmmmmmmmmmmmmmmmmmmmmmmmmmmmmmmmmmmmmmmmmmmmmmm"
};
