/* XPM */
static char *result[] = {
/* columns rows colors chars-per-pixel */
"64 64 47 1 ",
"  c black",
". c #000205",
"X c #080606",
"o c #020B19",
"O c #27201D",
"+ c #31221C",
"@ c #051C3F",
"# c #2C2521",
"$ c #372620",
"% c #3B2824",
"& c #5D4037",
"* c #55473F",
"= c #5E4138",
"- c #5F4239",
"; c #604339",
": c #62443A",
"> c #63453B",
", c #66473D",
"< c #6A4A3F",
"1 c #072655",
"2 c #072759",
"3 c #082A60",
"4 c #092F6A",
"5 c #6C4C41",
"6 c #6D4C41",
"7 c #714F43",
"8 c #62534B",
"9 c #65544B",
"0 c #755246",
"q c #775447",
"w c #795548",
"e c #B40000",
"r c #CE0000",
"t c #D50000",
"y c #D60606",
"u c #846E62",
"i c #A38879",
"p c #0B3C88",
"a c #0D47A1",
"s c #D1AF9B",
"d c #DFBBA5",
"f c #E0B9A4",
"g c #F0C9B2",
"h c #F8D0B8",
"j c #F8D1BA",
"k c white",
"l c None",
/* pixels */
"llllllllllllllllllllllllllllllllllllllllllllllllllllllllllllllll",
"llllllllllllllllllllllllllllllllllllllllllllllllllllllllllllllll",
"llllllllllllllllllllllllllllllllllllllllllllllllllllllllllllllll",
"lllllllllllllllllllllllllllllllllllllllllllll&&&&&&&&&&lllllllll",
"lllllllllllllllllllllllllllllllllllllllllllll&&&&&&&&&&lllllllll",
"lllllllllllllllllllllllllllllllllllllllllllll>>>;;;=&&&lllllllll",
"llllllllllllllllllllllllllllllllllllll&&&6667www666:&&&&&&llllll",
"llllllllllllllllllllllllllllllllllllll&&&6667www666:&&&&&&llllll",
"lllllllllllllllllllllllllll66666666666wwwwwwwwww6660www&&&llllll",
"lllllllllllllllllllllllllll66666666666wwwwwwwwww6660www&&&llllll",
"lllllllllllllllllllllllllll66666666666wwwwwwwwww6660www&&&llllll",
"lllllllllllllllll&&&<666666wwwwwwwwwwwwwwwww06666666666&&&llllll",
"lllllllllllllllll&&&<666666wwwwwwwwwwwwwwwww06666666666&&&llllll",
"lllllllllllll+&&&666qwwwwwwwwww666666666666666666660wwwlllllllll",
"lllllllllllll+&&&666qwwwwwwwwww666666666666666666660wwwlllllllll",
"lllllllllllll+&&&666qwwwwwwwwww666666666666666666660wwwlllllllll",
"lllllllllllll%666wwwwwww66666666666665&&&&&&&&&&&&&lllllllllllll",
"lllllllllllll%666wwwwwww66666666666665&&&&&&&&&&&&&lllllllllllll",
"lllllllllllll%666wwwwwww6666666&&&hhhhhhhhhhhhhhhhhlllllllllllll",
"lllllllllllll%666wwwwwww6666666&&&hhhhhhhhhhhhhhhhhlllllllllllll",
"lllllllllllll%666wwwwwww6666666&&&hhhhhhhhhhhhhhhhhlllllllllllll",
"lllllllllllll%666666-&&&hhhhhhhhhhhhhg      *hhhhhhlllllllllllll",
"lllllllllllll%666666-&&&hhhhhhhhhhhhhg      *hhhhhhlllllllllllll",
"lllllllllllll%666666-&&&hhhhhhhhhhOOO#ssssssdhhhhhhlllllllllllll",
"lllllllllllll%666666-&&&hhhhhhhhhh   Xhhhhhhhhhhhhhlllllllllllll",
"lllllllllllll%666666-&&&hhhhhhhhhh   Xhhhhhhhhhhhhhlllllllllllll",
"lllllllllllll%666&&&fhhhhhhhhhhhhhhhhjkkk   *hhhhhhlllllllllllll",
"lllllllllllll%666&&&fhhhhhhhhhhhhhhhhjkkk   *hhhhhhlllllllllllll",
"lllllllllllll$,,,&&&fhhhhhhhhhhhhhhhhjkkk   *hhhhhhlllllllllllll",
"lllllllllllll+&&&&&&fhhhhhhhhhhhhhhhhjkkk   *hhhhhhlllllllllllll",
"lllllllllllll+&&&&&&fhhhhhhhhhhhhhhhhjkkk   *hhhhhhlllllllllllll",
"llllllllllllluhhhhhhhhhhhhhhhhhhhhhhhhhhhhhhhhhhhhhlllllllllllll",
"llllllllllllluhhhhhhhhhhhhhhhhhhhhhhhhhhhhhhhhhhhhhlllllllllllll",
"llllllllllllluhhhhhhhhhhhhhhhhhhhhhhhhhhhhhhhhhhhhhlllllllllllll",
"lllllllllllll    hhhhhhhhhhhhhhhhhhhhg      *hhhllllllllllllllll",
"lllllllllllll    hhhhhhhhhhhhhhhhhhhhg      *hhhllllllllllllllll",
"lllllllllllllllll          ttttttttttyhhhhhhilllllllllllllllllll",
"lllllllllllllllll          ttttttttttyhhhhhhilllllllllllllllllll",
"lllllllllllllllll          ttttttttttyhhhhhhilllllllllllllllllll",
"llllllllllllllllllll    tttttttttttttr   lllllllllllllllllllllll",
"llllllllllllllllllll    tttttttttttttr   lllllllllllllllllllllll",
"llllllllllllllllllll    tttttttttttttr   lllllllllllllllllllllll",
"llllllllllllllllllll    tttttttttttttr   lllllllllllllllllllllll",
"llllllllllllllllllll    tttttttttttttr   lllllllllllllllllllllll",
"lllllllllllllllll   ettt   tttttttttttttt    lllllllllllllllllll",
"lllllllllllllllll   ettt   tttttttttttttt    lllllllllllllllllll",
"lllllllllllllllll   etttttt    hhhhhhg       lllllllllllllllllll",
"lllllllllllllllll   etttttt    hhhhhhg       lllllllllllllllllll",
"lllllllllllllllll   etttttt    hhhhhhg       lllllllllllllllllll",
"lllllllllllll    aaao          hhhhhhg       lllllllllllllllllll",
"lllllllllllll    aaao          hhhhhhg       lllllllllllllllllll",
"lllllllllllll    aaa433333333339999998333333@   llllllllllllllll",
"lllllllllllll    aaaaaaaaaaaaaa      .aaaaaa4   llllllllllllllll",
"lllllllllllll    aaaaaaaaaaaaaa      .aaaaaa4   llllllllllllllll",
"llllllllll   1aaaaaaaaaaaaa       aaaaaaaaaa4   llllllllllllllll",
"llllllllll   1aaaaaaaaaaaaa       aaaaaaaaaa4   llllllllllllllll",
"llllllllll   1aaaaaaaaaappp       pppppppppp2   llllllllllllllll",
"llllllllll   1aaaaaaaaaa   lllllll           lllllllllllllllllll",
"llllllllll   1aaaaaaaaaa   lllllll           lllllllllllllllllll",
"lllllllllllll           llllllllllllllllllllllllllllllllllllllll",
"lllllllllllll           llllllllllllllllllllllllllllllllllllllll",
"lllllllllllll           llllllllllllllllllllllllllllllllllllllll",
"llllllllllllllllllllllllllllllllllllllllllllllllllllllllllllllll",
"llllllllllllllllllllllllllllllllllllllllllllllllllllllllllllllll"
};
