/* XPM */
static char *result[] = {
/* columns rows colors chars-per-pixel */
"64 64 12 1 ",
"  c black",
". c #663300",
"X c #794613",
"o c #B2592D",
"O c #CC6633",
"+ c #CE703D",
"@ c #D27340",
"# c #DFB286",
"$ c #FFCC99",
"% c #DFDFDF",
"& c white",
"* c None",
/* pixels */
"****************************************************************",
"****************************************************************",
"****************************************************************",
"****************************************************************",
"****************************************************************",
"****************************************************************",
"****************************************************************",
"****************************************************************",
"****************************************************************",
"****************************************************************",
"*********************OOOOOOOOOOOOOOOOOOOOOO*********************",
"*********************OOOOOOOOOOOOOOOOOOOOOO*********************",
"*********************OOOOOOOOOOOOOOOOOOOOOO*********************",
"******************OOOOOOOOOOOOOOOOOOOOOOOOOOOO******************",
"******************OOOOOOOOOOOOOOOOOOOOOOOOOOOO******************",
"******************OOOOOOOOOOOOOOOOOOOOOOOOOOOO******************",
"**************oOOOOOO$$$$$$OOOOOOOOOO$$$$$$OOOOOOo**************",
"**************oOOOOOO$$$$$$OOOOOOOOOO$$$$$$OOOOOOo**************",
"**************oOOOOOO$$$$$$OOOOOOOOOO$$$$$$OOOOOOo**************",
"**************oOO@$$$      $$$$$$$$$$      $$$@OOo**************",
"**************oOO@$$$      $$$$$$$$$$      $$$@OOo**************",
"**************oOO@$$$      $$$$$$$$$$      $$$@OOo**************",
"********######+OO@$$$   %%%$$$$$$$$$$   %%%$$$@OO+######********",
"********$$$$$$@OO@$$$   &&&$$$$$$$$$$   &&&$$$@OO@$$$$$$********",
"********$$$$$$@OO@$$$   &&&$$$$$$$$$$   &&&$$$@OO@$$$$$$********",
"********$$$$$$@OO@$$$   %%%$$$$$$$$$$   %%%$$$@OO@$$$$$$********",
"********$$$$$$@OO@$$$      $$$$$$$$$$      $$$@OO@$$$$$$********",
"********$$$$$$@OO@$$$      $$$$$$$$$$      $$$@OO@$$$$$$********",
"********$$$$$$@OO@$$$      $$$$$$$$$$      $$$@OO@$$$$$$********",
"***********$$$@OOOOOO$$$$$$$$$X..X$$$$$$$$$OOOOOO@$$$***********",
"***********$$$@OOOOOO$$$$$$$$$X..X$$$$$$$$$OOOOOO@$$$***********",
"***********$$$@OOOOOO$$$$$$$$$X..X$$$$$$$$$OOOOOO@$$$***********",
"**************oOOOOOOOOO$$$$$$$$$$$$$$$$OOOOOOOOOo**************",
"**************oOOOOOOOOO$$$$$$$$$$$$$$$$OOOOOOOOOo**************",
"**************oOOOOOOOOO$$$$$$$$$$$$$$$$OOOOOOOOOo**************",
"******************OOOOOO$$$$$$$$$$$$$$$$OOOOOO******************",
"******************OOOOOO$$$$$$$$$$$$$$$$OOOOOO******************",
"******************OOOOOO$$$$$$$$$$$$$$$$OOOOOO******************",
"*********************OOO@@@@@@@@@@@@@@@@OOO*********************",
"*********************OOOOOOOOOOOOOOOOOOOOOO*********************",
"*********************OOOOOOOOOOOOOOOOOOOOOO*********************",
"*********************OOO@@@@@@@@@@@@@@@@OOO*********************",
"******************OOOOOO$$$$$$$$$$$$$$$$OOOOOO******************",
"******************OOOOOO$$$$$$$$$$$$$$$$OOOOOO******************",
"******************OOOOOO$$$$$$$$$$$$$$$$OOOOOO******************",
"******************OOOOOO$$$$$$$$$$$$$$$$OOOOOO******************",
"******************OOOOOO$$$$$$$$$$$$$$$$OOOOOO******************",
"******************OOOOOO$$$$$$$$$$$$$$$$OOOOOO******************",
"******************OOO***OOO$$$$$$$$$$OOO***OOO******************",
"******************OOO***OOO$$$$$$$$$$OOO***OOO******************",
"******************OOO***OOO$$$$$$$$$$OOO***OOO******************",
"************************......****......************************",
"************************......****......************************",
"************************......****......************************",
"****************************************************************",
"****************************************************************",
"****************************************************************",
"****************************************************************",
"****************************************************************",
"****************************************************************",
"****************************************************************",
"****************************************************************",
"****************************************************************",
"****************************************************************"
};
