/* XPM */
static char *result[] = {
/* columns rows colors chars-per-pixel */
"64 64 28 1 ",
"  c black",
". c #32211D",
"X c #3A2823",
"o c #5A0000",
"O c #6C0000",
"+ c #7B0000",
"@ c #4A3E37",
"# c #563B33",
"$ c #5D4037",
"% c #5E4138",
"& c #5F4238",
"* c #62443A",
"= c #65463C",
"- c #06234F",
"; c #072452",
": c #6B4B40",
"> c #6D4C41",
", c #6E4D42",
"< c #735044",
"1 c #735145",
"2 c #785447",
"3 c #795548",
"4 c #A90000",
"5 c #D50000",
"6 c #826D60",
"7 c #0D47A1",
"8 c #F8D0B8",
"9 c None",
/* pixels */
"9999999999999999999999999999999999999999999999999999999999999999",
"9999999999999999999999999999999999999999999999999999999999999999",
"9999999999999999999999999999999999999999999999999999999999999999",
"9999999999999999999999999999999999>>>>>>>>>>$$$$$$$$$$$$$.999999",
"9999999999999999999999999999999999>>>>>>>>>>$$$$$$$$$$$$$.999999",
"99999999999999999999$$$$$$$$$$$$$$>>>>>>>>>>>>>3333333>>>=$$$999",
"99999999999999999999$$$$$$$$$$$$$$>>>>>>>>>>>>>3333333>>>=$$$999",
"99999999999999999999$$$%&&&&&&%%%%>>>,,,,,,,,,,2222333>>>*###999",
"9999999999999>>>>$$$$$$:333333>>>>>>>3333333333>>>>333>>>X999999",
"9999999999999>>>>$$$$$$:333333>>>>>>>3333333333>>>>333>>>X999999",
"9999999999$$$3333333333<>>>>>>>>>>3333331>>>>>>>>>>>>>$$$.999999",
"9999999999$$$3333333333<>>>>>>>>>>3333331>>>>>>>>>>>>>$$$.999999",
"9999999999$$$3333333333<>>>>>>>>>>3333331>>>>>>>>>>>>>$$$.999999",
"9999999999333$$$$$$$$$$:3333333333333>>>>>>>>>>$$$$>>>9999999999",
"9999999999333$$$$$$$$$$:3333333333333>>>>>>>>>>$$$$>>>9999999999",
"9999999999>>>$$$$>>>>>>>>>>3333333333>>>>>>>>>>3333>>>9999999999",
"9999999999>>>$$$$>>>>>>>>>>3333333333>>>>>>>>>>3333>>>9999999999",
"9999999999>>>$$$$>>>>>>>>>>3333333333>>>>>>>>>>3333>>>9999999999",
"9999999999$$$>>>>>>>>>>>>>>>>>>>>>>>>>>><3333333333$$$9999999999",
"9999999999$$$>>>>>>>>>>>>>>>>>>>>>>>>>>><3333333333$$$9999999999",
"9999999999333>>>>>>>>>>>>>>>>>>>>>>>>>>>>>>>$$$33333339999999999",
"9999999999333>>>>>>>>>>>>>>>>>>>>>>>>>>>>>>>$$$33333339999999999",
"9999999999333>>>>>>>>>>>>>>>>>>>>>>>>>>>>>>>$$$33333339999999999",
"9999999999333$$$$333888888888888888888888888$$$3333$$$9999999999",
"9999999999333$$$$333888888888888888888888888$$$3333$$$9999999999",
"9999999999888888888888888888888888888888888888888888889999999999",
"9999999999888888888888888888888888888888888888888888889999999999",
"9999999999888888888888888888888888888888888888888888889999999999",
"9999999999888888888888888888888888888888888888888888889999999999",
"9999999999888888888888888888888888888888888888888888889999999999",
"9999999999999888888888888888888888888888888888888889999999999999",
"9999999999999888888888888888888888888888888888888889999999999999",
"9999999999999888888888888888888888888888888888888889999999999999",
"9999999999999999999988888888888888888888888899999999999999999999",
"9999999999999999999988888888888888888888888899999999999999999999",
"9999999      9999   @@@@@@@@@@@@@@@@@@@@@@@@   99999999999999999",
"999999       9999                              99999999999999999",
"999999       9999                              99999999999999999",
"999   6888888       555555555555555555555555555    9999999999999",
"999   6888888       555555555555555555555555555    9999999999999",
"999   6888888ooooooo555555555555555555554++++++oooo9999999999999",
"999   6888888555555555555555555555555555O      5555   9999999999",
"999   6888888555555555555555555555555555O      5555   9999999999",
"999999           555555555555555555555555555   8888888    999999",
"999999           555555555555555555555555555   8888888    999999",
"9999999          555555555555555555555555555   8888888    999999",
"9999999999999    555555555555555555555555555   8888888    999999",
"9999999999999    555555555555555555555555555   8888888    999999",
"9999999999999          O55555555555555555555555       9999999999",
"9999999999999          O55555555555555555555555       9999999999",
"9999999999999          O55555555555555555555555       9999999999",
"9999999999999    777777-                       99999999999999999",
"9999999999999    777777-                       99999999999999999",
"9999999999999    7777777777777       777;   99999999999999999999",
"9999999999999    7777777777777       777;   99999999999999999999",
"9999999999999    7777777777777       777;   99999999999999999999",
"99999999999999999   7777777   9999999       99999999999999999999",
"99999999999999999   7777777   9999999       99999999999999999999",
"99999999999999999   7777777   9999999999999999999999999999999999",
"99999999999999999   7777777   9999999999999999999999999999999999",
"99999999999999999   7777777   9999999999999999999999999999999999",
"99999999999999999999       9999999999999999999999999999999999999",
"99999999999999999999       9999999999999999999999999999999999999",
"9999999999999999999999999999999999999999999999999999999999999999"
};
