/* XPM */
static char *result[] = {
/* columns rows colors chars-per-pixel */
"64 64 16 1 ",
"  c #0C050A",
". c #190D06",
"X c #251906",
"o c #2B170B",
"O c #152706",
"+ c #272206",
"@ c #342205",
"# c #3F2110",
"$ c #422B04",
"% c #433A05",
"& c #553704",
"* c #542B13",
"= c #314103",
"- c #5E5107",
"; c #515C03",
": c #7A690C",
/* pixels */
"%%%%+%%%%--=%%%@.::%:::::%%--%%%%--+%%+%%+@  X@@..=;;;OO==..O==;",
"%%%%+--%%--+++$@O.O%::%::%-----%--+++++%%+@@X$$@O.O==OO==..OO===",
"--%++---%%--+&$O..  ++%%++--%-----.+++%%++O@&&$O..  ==  O@@XOOO=",
"--%%----%---+&ooO  ==+++==++ %--...%%+%%%% &&&oo=  ==  O.@@XOO..",
"%%%%--+----++OOOO..  O+==O==#+++.##%%%%=%%@$&OO==..  OOOX@@oOOOo",
".%%% OO--@@$OO++OOO..+OOO==O++++.###o%% X@@$OOOOOO=..XOO@@@OOO##",
"       XXX@ OO+++O...OOO==O+++++++##.ooXXX@o..OO==...X .@@X==###",
"++ OO  XX    O=++++--+++%==%%%%+++oOO++XX.oooOOOOOOo.XX.@@OO==#o",
"++OO  +++   ==++--+--+++%%%%--%--+OO.++X ..oooo OO### XX@@#####o",
"+    ++++ %%%OO+----+--+%%%%-----+ ++.++ ..oo.XXXX###. @@@oooo.o",
"+++  +++  %%%%%++%-----++%%%%--%   +++++ ....  .oXXXX.X@@X###o..",
"+++ ++%%+  %%--%%----%++%---%%---   ++.  ....  .oo#oXX$$@Xo###. ",
"+%%+++%%%%--%---%--%++%+%--------   ..   ...    ooo .$$$XXooo.. ",
"%%%++%%+%%------%%%%%%%%++%----%+   ..   ++     oo X$$$ XXXoo.. ",
"%%%%+%%%+ %%---%%%--%%%%%%++%--  ++     +++++   .. $$$X .XXoo.  ",
"++%%%%%%+ %-----%---+%--%%--%%  +++     ++ ++   = X$$OO..X@@.   ",
"++%%%+%%   --------+++--%%--%%+ ++              ==@$$XOO..@@@   ",
" OO%%        --+--+%%++----++++    ++ ++      =OOX@@ X ....@@  =",
"OO++  %% +%%     ++%%------% +OO   ++++++     O==@@@ XX  ==@@   ",
"OOO   %%%%%%+%%++  ----%--%% OO     +%%+++     OO@@X  X...==@X O",
" OOO ++--%%++%%++++--%----+    OO +++%%%++       @@    .OOO@@X  ",
"OO+  +---%%--%+++%%++%--+     OO  ++++%%         @@OO ...OX@@   ",
" OO   --++%%--%%+%% +++  ++  OO    +%%++     ... @@O  ... @@X   ",
"O    ++++%%--+%%++  ++++++++  OO    %%%+     ... @@OOO...X@@   X",
"OO  +%%+%-----  +++++%%+%%++     ++  %%   .. ..OO@@XO    X@X  XX",
"+  %%%%%%--+-- +++%%+%%%%%  ++ ++++       .. ...==XX     XX  XX ",
"+++%%+%%%%%+   +++%%++%%%++ +++++        ... ..== XXX   XXXO X  ",
".++ ++%%+%%% +  +++%%+%%%%+   ++         ... ..  OOXX   XXOOO   ",
"+.   +++++%%++++++%%%%%+%%  ++           ..  ...OO XX   XX OO  .",
"%    ++  ++++%%%++%%+%%%    ++%%+ ++     .. .###o..XXX OXX  O @@",
"%        ++%%+%%%++++ %%  ++++%%++++        .#####. XX OOX   X@@",
". ++     +%%%%%   ++      +++%%++++         .o####. XX.O X  XXXO",
". ++ ++   %%+%%%         %%++%%% ++         oo###o. XX.     XXXO",
".++  ++    .++%%    ++   %%%%+%%.          .###oo. .XX.  OOXXXO;",
"%%++++    ++        ++  ++ %%....          .o###.  OXX. ==OXXO==",
"%%+%%++  +++            +++  ...           ooooo   OOX   ==XXOO=",
"+%%%%%+++++++        ..  ++ ....          .oooo.  .OoX  OOXXXO==",
"%%%+%% ++++++ ++ ++ ...    .oooo.         ...oo.  oo.X OOOXXooOO",
"%% ++    ++   +++++ ....   oooo..        .oo.....   ....  XXoooO",
".    ..    oooo.++#o.......o###..    ..  .ooooo..##o .....XX##O=",
".   ...  ..oooo o####.....o###o..   ...  ..oooo o####.....XX##o.",
".   ...  ..oo.  oo###......ooo...   ...  ..oo.  oo###......ooo..",
"   ..o.  ....  .oo##.....#****..   ..o.  ....  .oo##.....#****..",
".  .oo.  ....  .oo#o...o###***...  .oo.  ....  .oo#o...o###***..",
". .ooo   ...    ooo ...o###**o... .ooo   ...    ooo ...o###**o..",
". .oo.          oo  ..oo###*#.... .oo.          oo  ..oo###*#...",
". ooo           ..   .ooo##*..... ooo           ..   .ooo##*....",
"  ooo.      .  ...    oooo##.     ooo.      .  ...    oooo##.   ",
"  oo.     ...  ..  o. ooooo.      oo.     ...  ..  o. ooooo.    ",
" ....     ...  .  .oo .ooo.      ....     ...  .  .oo .ooo.     ",
" .oo....oo... ..  ..  ..oo       .oo....oo... ..  ..  ..oo      ",
" ooo....oooo  ...     ....       ooo....oooo  ...     ....      ",
".ooo....oooo  ..ooo   ..   ..   .ooo....oooo  ..ooo   ..   ..   ",
".oooo..oooo  ..oo###o    ...   ..oooo..oooo  ..oo###o    ...   .",
"ooooo.ooooo  ..oo#####o....  ...ooooo.ooooo  ..oo#####o....  ...",
"oooo..ooooo  .ooo#####oo... ...ooooo..ooooo  .ooo#####oo... ...o",
"oooo.###oo. ..##o###*#....  ..oooooo.###oo. ..##o###*#....  ..oo",
"##o..####o  .o##o###*o..    ..o###o..####o  .o##o###*o..    ..o#",
"#*..#####o ..###o##*#...     .o###..#####o ..###o##*#...     .o#",
"#*..####o. ..###oo#*...   .  o####..####o. ..###oo#*...   .  o##",
"*#oo####. .....ooooo..   ..  o####oo####. .....ooooo..   ..  o##",
"*ooooo##. ...###....    ..  o####ooooo##. ...###....    ..  o###",
"#o###ooo.....#####.     .. .o####o###ooo.....#####.     .. .o###",
"#o###*o......o####.... .. ..o####o####o......o####.... .. .oo###"
};
